<svg width="310" height="43" viewBox="0 0 310 43" fill="none" xmlns="http://www.w3.org/2000/svg">
<path d="M44.3853 1.93665V0.257202H56.3741V1.93665H51.3333V15.4025H49.426V1.93665H44.3853Z" fill="#202020"/>
<path d="M59.5381 15.4025V0.257202H61.4454V6.70266H69.5439V0.257202H71.4512V15.4025H69.5439V8.24594H61.4454V15.4025H59.5381Z" fill="#202020"/>
<path d="M75.5532 15.4025V0.257202H86.2553V1.93665H77.4605V6.7178H85.4531V8.32159H77.4605V13.6323H86.5127V15.3874H75.5532V15.4025Z" fill="#202020"/>
<path d="M94.6411 15.4025V0.257202H104.919V1.93665H96.5484V6.65727H103.527V8.26108H96.5484V15.4025H94.6411Z" fill="#202020"/>
<path d="M108.204 15.4025V0.257202H110.111V15.4025H108.204Z" fill="#202020"/>
<path d="M114.274 15.4025V0.257202H121.359C122.691 0.257202 123.766 0.635455 124.583 1.40709C125.4 2.17873 125.824 3.17733 125.824 4.41801C125.824 6.35467 124.946 7.59535 123.19 8.17029V8.23082C123.947 8.50316 124.477 8.9268 124.795 9.48662C125.113 10.0464 125.31 10.924 125.37 12.0739C125.506 14.0106 125.749 15.0848 126.066 15.3117V15.4025H124.008C123.856 15.2815 123.75 15.0091 123.675 14.6006C123.614 14.1921 123.538 13.3297 123.448 12.0134C123.372 10.9089 123.1 10.1372 122.63 9.68331C122.161 9.22941 121.404 9.00245 120.375 9.00245H116.151V15.4025H114.244H114.274ZM116.182 1.90639V7.45917H120.678C121.722 7.45917 122.509 7.21709 123.054 6.73292C123.584 6.24876 123.856 5.5679 123.856 4.69035C123.856 3.75228 123.614 3.04116 123.13 2.58725C122.645 2.13335 121.873 1.90639 120.783 1.90639H116.182Z" fill="#202020"/>
<path d="M129.396 15.4025V0.257202H140.099V1.93665H131.304V6.7178H139.296V8.32159H131.304V13.6323H140.356V15.3874H129.396V15.4025Z" fill="#202020"/>
<path d="M148.5 15.4025V0.257202H155.584C156.916 0.257202 157.991 0.635455 158.824 1.40709C159.656 2.17873 160.065 3.17733 160.065 4.41801C160.065 6.35467 159.187 7.59535 157.431 8.17029V8.23082C158.173 8.50316 158.718 8.9268 159.036 9.48662C159.353 10.0464 159.55 10.924 159.611 12.0739C159.747 14.0106 159.989 15.0848 160.307 15.3117V15.4025H158.248C158.097 15.2815 157.991 15.0091 157.915 14.6006C157.855 14.1921 157.779 13.3297 157.688 12.0134C157.613 10.9089 157.34 10.1372 156.871 9.68331C156.402 9.22941 155.645 9.00245 154.615 9.00245H150.392V15.4025H148.485H148.5ZM150.407 1.90639V7.45917H154.903C155.948 7.45917 156.735 7.21709 157.28 6.73292C157.809 6.24876 158.082 5.5679 158.082 4.69035C158.082 3.75228 157.84 3.04116 157.355 2.58725C156.871 2.13335 156.084 1.90639 155.009 1.90639H150.407Z" fill="#202020"/>
<path d="M163.668 15.4025V0.257202H165.575V15.4025H163.668Z" fill="#202020"/>
<path d="M175.248 15.7051C173.219 15.7051 171.645 15.2059 170.555 14.2073C169.465 13.2087 168.875 11.8923 168.784 10.2885H170.646C170.903 12.8909 172.463 14.1921 175.324 14.1921C176.413 14.1921 177.291 13.95 177.942 13.4659C178.593 12.9817 178.926 12.2706 178.926 11.3628C178.926 10.9543 178.851 10.5911 178.699 10.2885C178.548 9.9708 178.351 9.72872 178.139 9.53203C177.927 9.33534 177.594 9.15377 177.155 8.98734C176.716 8.82091 176.307 8.68474 175.944 8.57882C175.566 8.48804 175.051 8.367 174.415 8.2157C173.643 8.04926 172.992 7.8677 172.493 7.70127C171.978 7.51971 171.479 7.27763 170.964 6.97502C170.449 6.67242 170.071 6.2639 169.829 5.77973C169.586 5.29557 169.45 4.70549 169.45 4.0095C169.45 2.76883 169.919 1.78537 170.858 1.07425C171.797 0.363129 173.038 0 174.597 0C178.003 0 179.91 1.57354 180.334 4.72063H178.533C178.396 3.64638 177.988 2.84448 177.322 2.29979C176.656 1.7551 175.763 1.48276 174.627 1.48276C173.583 1.48276 172.75 1.69458 172.145 2.11823C171.539 2.54188 171.221 3.14708 171.221 3.91872C171.221 4.25159 171.282 4.55419 171.418 4.82654C171.554 5.08375 171.736 5.3107 171.948 5.47714C172.16 5.6587 172.463 5.81 172.811 5.9613C173.174 6.09747 173.522 6.21851 173.885 6.30929C174.234 6.40008 174.673 6.49085 175.172 6.59677C175.884 6.73294 176.459 6.86911 176.913 6.99015C177.367 7.1112 177.867 7.29276 178.412 7.53484C178.956 7.77693 179.395 8.04927 179.698 8.367C180.001 8.68474 180.258 9.07812 180.485 9.57742C180.712 10.0767 180.818 10.6668 180.818 11.3325C180.818 12.7094 180.304 13.7987 179.29 14.5855C178.26 15.3723 176.913 15.7657 175.248 15.7657V15.7051Z" fill="#202020"/>
<path d="M184.27 15.4025V0.257202H186.177V7.77691L193.64 0.257202H196.031L189.901 6.30928L196.531 15.4025H194.306L188.599 7.61048L186.162 10.0464V15.4025H184.254H184.27Z" fill="#202020"/>
<path d="M44.3853 42.6369L49.9558 27.4916H52.0902L57.691 42.6369H55.6172L54.0126 38.0222H47.9728L46.338 42.6369H44.3853ZM50.3191 31.3952L48.5178 36.4789H53.4828L51.742 31.3952L51.0608 29.2618H51.0154C50.743 30.1091 50.5159 30.8202 50.3191 31.3952Z" fill="#202020"/>
<path d="M65.8953 42.9395C63.8669 42.9395 62.2926 42.4402 61.2027 41.4416C60.1128 40.443 59.5225 39.1267 59.4316 37.5229H61.2935C61.5509 40.1253 63.11 41.4265 65.971 41.4265C67.0609 41.4265 67.9388 41.1844 68.5898 40.7003C69.2407 40.2161 69.5737 39.505 69.5737 38.5972C69.5737 38.1886 69.498 37.8255 69.3466 37.5229C69.1952 37.2052 68.9985 36.9631 68.7865 36.7664C68.5746 36.5697 68.2416 36.3881 67.8026 36.2217C67.3636 36.0553 66.9549 35.9191 66.5916 35.8132C66.2132 35.7224 65.6985 35.6014 65.0627 35.4501C64.2907 35.2836 63.6398 35.1021 63.1403 34.9356C62.6256 34.7541 62.1261 34.512 61.6114 34.2094C61.0968 33.9068 60.7183 33.4983 60.4761 33.0141C60.2339 32.5299 60.0977 31.9399 60.0977 31.2439C60.0977 30.0032 60.5669 29.0197 61.5055 28.3086C62.444 27.5975 63.6852 27.2344 65.2444 27.2344C68.6503 27.2344 70.5576 28.8079 70.9815 31.955H69.1801C69.0439 30.8808 68.6352 30.0789 67.9691 29.5342C67.3031 28.9895 66.41 28.7171 65.2747 28.7171C64.2302 28.7171 63.3976 28.929 62.7921 29.3526C62.1866 29.7762 61.8688 30.3815 61.8688 31.1531C61.8688 31.486 61.9293 31.7886 62.0655 32.0609C62.2018 32.3181 62.3834 32.5451 62.5954 32.7115C62.8073 32.8931 63.11 33.0444 63.4582 33.1957C63.8215 33.3318 64.1696 33.4529 64.5329 33.5437C64.8811 33.6344 65.3201 33.7252 65.8196 33.8311C66.5311 33.9673 67.1063 34.1035 67.5604 34.2245C68.0145 34.3456 68.5141 34.5271 69.059 34.7692C69.604 35.0113 70.0429 35.2836 70.3457 35.6014C70.6484 35.9191 70.9058 36.3125 71.1328 36.8118C71.3599 37.3111 71.4658 37.9012 71.4658 38.5669C71.4658 39.9437 70.9512 41.0331 69.937 41.8199C68.9076 42.6067 67.5604 43 65.8953 43V42.9395Z" fill="#202020"/>
<path d="M80.4275 42.9395C78.3991 42.9395 76.8248 42.4402 75.7349 41.4416C74.645 40.443 74.0547 39.1267 73.9639 37.5229H75.8258C76.0831 40.1253 77.6422 41.4265 80.5032 41.4265C81.5931 41.4265 82.4559 41.1844 83.122 40.7003C83.7729 40.2161 84.1059 39.505 84.1059 38.5972C84.1059 38.1886 84.0302 37.8255 83.8788 37.5229C83.7275 37.2052 83.5307 36.9631 83.3188 36.7664C83.1068 36.5697 82.7738 36.3881 82.3348 36.2217C81.8958 36.0553 81.4871 35.9191 81.1238 35.8132C80.7454 35.7224 80.2307 35.6014 79.5798 35.4501C78.8078 35.2836 78.1569 35.1021 77.6574 34.9356C77.1427 34.7541 76.6432 34.512 76.1285 34.2094C75.6138 33.9068 75.2505 33.4983 74.9932 33.0141C74.751 32.5299 74.6299 31.9399 74.6299 31.2439C74.6299 30.0032 75.0992 29.0197 76.0377 28.3086C76.9762 27.5975 78.2175 27.2344 79.7766 27.2344C83.1825 27.2344 85.0898 28.8079 85.5137 31.955H83.7123C83.5761 30.8808 83.1674 30.0789 82.5013 29.5342C81.8353 28.9895 80.9422 28.7171 79.8069 28.7171C78.7624 28.7171 77.9299 28.929 77.3092 29.3526C76.6886 29.7762 76.3858 30.3815 76.3858 31.1531C76.3858 31.486 76.4464 31.7886 76.5826 32.0609C76.7189 32.3333 76.9005 32.5451 77.1124 32.7115C77.3244 32.8931 77.6271 33.0444 77.9753 33.1957C78.3386 33.3318 78.6867 33.4529 79.05 33.5437C79.3982 33.6344 79.8372 33.7252 80.3367 33.8311C81.0482 33.9673 81.6234 34.1035 82.0775 34.2245C82.5316 34.3456 83.0312 34.5271 83.5761 34.7692C84.121 35.0113 84.56 35.2836 84.8628 35.6014C85.1655 35.9191 85.4229 36.3125 85.6499 36.8118C85.8618 37.3111 85.9829 37.9012 85.9829 38.5669C85.9829 39.9437 85.4683 41.0331 84.4541 41.8199C83.4247 42.6067 82.0775 43 80.4124 43L80.4275 42.9395Z" fill="#202020"/>
<path d="M89.4644 42.6369V27.4916H100.166V29.171H91.3717V33.9522H99.3642V35.556H91.3717V40.8667H100.424V42.6218H89.4644V42.6369Z" fill="#202020"/>
<path d="M109.219 42.9395C107.19 42.9395 105.616 42.4402 104.526 41.4416C103.436 40.443 102.846 39.1267 102.755 37.5229H104.617C104.874 40.1253 106.433 41.4265 109.294 41.4265C110.384 41.4265 111.247 41.1844 111.913 40.7003C112.564 40.2161 112.897 39.505 112.897 38.5972C112.897 38.1886 112.821 37.8255 112.67 37.5229C112.518 37.2052 112.322 36.9631 112.11 36.7664C111.898 36.5697 111.565 36.3881 111.126 36.2217C110.687 36.0553 110.278 35.9191 109.915 35.8132C109.536 35.7224 109.022 35.6014 108.371 35.4501C107.599 35.2836 106.948 35.1021 106.448 34.9356C105.934 34.7541 105.434 34.512 104.92 34.2094C104.405 33.9068 104.042 33.4983 103.784 33.0141C103.542 32.5299 103.421 31.9399 103.421 31.2439C103.421 30.0032 103.89 29.0197 104.829 28.3086C105.767 27.5975 107.008 27.2344 108.568 27.2344C111.974 27.2344 113.881 28.8079 114.305 31.955H112.503C112.367 30.8808 111.958 30.0789 111.292 29.5342C110.626 28.9895 109.733 28.7171 108.598 28.7171C107.553 28.7171 106.721 28.929 106.1 29.3526C105.48 29.7762 105.177 30.3815 105.177 31.1531C105.177 31.486 105.237 31.7886 105.374 32.0609C105.51 32.3333 105.692 32.5451 105.903 32.7115C106.115 32.8931 106.418 33.0444 106.766 33.1957C107.13 33.3318 107.478 33.4529 107.841 33.5437C108.189 33.6344 108.628 33.7252 109.128 33.8311C109.839 33.9673 110.414 34.1035 110.869 34.2245C111.323 34.3456 111.822 34.5271 112.367 34.7692C112.912 35.0113 113.351 35.2836 113.654 35.6014C113.957 35.9191 114.214 36.3125 114.441 36.8118C114.653 37.3111 114.774 37.9012 114.774 38.5669C114.774 39.9437 114.259 41.0331 113.245 41.8199C112.216 42.6067 110.869 43 109.203 43L109.219 42.9395Z" fill="#202020"/>
<path d="M123.75 42.9395C121.722 42.9395 120.148 42.4402 119.058 41.4416C117.968 40.443 117.377 39.1267 117.287 37.5229H119.149C119.406 40.1253 120.965 41.4265 123.826 41.4265C124.916 41.4265 125.794 41.1844 126.445 40.7003C127.096 40.2161 127.429 39.505 127.429 38.5972C127.429 38.1886 127.353 37.8255 127.202 37.5229C127.05 37.2052 126.853 36.9631 126.642 36.7664C126.43 36.5697 126.097 36.3881 125.658 36.2217C125.219 36.0553 124.81 35.9191 124.447 35.8132C124.068 35.7224 123.553 35.6014 122.918 35.4501C122.146 35.2836 121.495 35.1021 120.995 34.9356C120.481 34.7541 119.981 34.512 119.466 34.2094C118.952 33.9068 118.573 33.4983 118.331 33.0141C118.089 32.5299 117.953 31.9399 117.953 31.2439C117.953 30.0032 118.422 29.0197 119.36 28.3086C120.299 27.5975 121.54 27.2344 123.099 27.2344C126.505 27.2344 128.413 28.8079 128.836 31.955H127.035C126.899 30.8808 126.49 30.0789 125.824 29.5342C125.158 28.9895 124.265 28.7171 123.13 28.7171C122.085 28.7171 121.253 28.929 120.647 29.3526C120.042 29.7762 119.724 30.3815 119.724 31.1531C119.724 31.486 119.784 31.7886 119.921 32.0609C120.057 32.3181 120.238 32.5451 120.45 32.7115C120.662 32.8931 120.965 33.0444 121.313 33.1957C121.676 33.3318 122.025 33.4529 122.388 33.5437C122.736 33.6344 123.175 33.7252 123.675 33.8311C124.386 33.9673 124.961 34.1035 125.415 34.2245C125.87 34.3456 126.369 34.5271 126.914 34.7692C127.459 35.0113 127.898 35.2836 128.201 35.6014C128.503 35.9191 128.761 36.3125 128.988 36.8118C129.215 37.3111 129.321 37.9012 129.321 38.5669C129.321 39.9437 128.806 41.0331 127.792 41.8199C126.763 42.6067 125.415 43 123.75 43V42.9395Z" fill="#202020"/>
<path d="M132.772 42.6369V27.4916H135.21L140.129 40.0799H140.175L145.049 27.4916H147.531V42.6369H145.715V30.1848H145.67C145.397 30.9715 145.17 31.607 144.988 32.0912L140.841 42.6369H139.372L135.225 32.0912L134.544 30.1848H134.498V42.6369H132.788H132.772Z" fill="#202020"/>
<path d="M151.634 42.6369V27.4916H162.336V29.171H153.541V33.9522H161.534V35.556H153.541V40.8667H162.593V42.6218H151.634V42.6369Z" fill="#202020"/>
<path d="M166.09 42.6369V27.4916H168.103L175.006 38.0222L176.111 39.974H176.156V27.4916H177.942V42.6369H175.99L169.042 32.0912L167.921 30.1999H167.876V42.6369H166.09Z" fill="#202020"/>
<path d="M181.091 29.171V27.4916H193.08V29.171H188.039V42.6369H186.132V29.171H181.091Z" fill="#202020"/>
<path d="M207.415 42.9395C205.28 42.9395 203.57 42.1981 202.268 40.7305C200.966 39.2629 200.315 37.3716 200.315 35.0567C200.315 32.7418 200.966 30.8807 202.253 29.3828C203.54 27.9001 205.296 27.1436 207.506 27.1436C209.231 27.1436 210.624 27.5824 211.684 28.475C212.743 29.3677 213.379 30.5328 213.591 31.9701H211.729C211.547 31.0169 211.078 30.2453 210.336 29.6552C209.595 29.0802 208.641 28.7928 207.46 28.7928C205.841 28.7928 204.569 29.3677 203.646 30.5479C202.722 31.7129 202.268 33.2108 202.268 35.0415C202.268 36.8723 202.737 38.4005 203.691 39.5352C204.645 40.67 205.901 41.2449 207.475 41.2449C208.838 41.2449 209.882 40.8515 210.624 40.0648C211.366 39.278 211.79 38.2794 211.88 37.0841H213.773C213.773 37.8406 213.591 38.5971 213.258 39.3839C212.925 40.1707 212.486 40.8213 211.956 41.3357C210.866 42.3948 209.352 42.9244 207.415 42.9244V42.9395Z" fill="#202020"/>
<path d="M229.424 40.7305C228.077 42.2133 226.276 42.9546 224.035 42.9546C221.795 42.9546 219.994 42.2133 218.647 40.7305C217.299 39.2477 216.618 37.3565 216.618 35.0567C216.618 32.7569 217.299 30.8656 218.647 29.3829C219.994 27.9001 221.795 27.1587 224.035 27.1587C226.276 27.1587 228.077 27.9001 229.424 29.3829C230.772 30.8656 231.453 32.7569 231.453 35.0567C231.453 37.3565 230.772 39.2477 229.424 40.7305ZM220.009 39.5503C220.963 40.7154 222.31 41.2903 224.035 41.2903C225.761 41.2903 227.108 40.7154 228.062 39.5503C229.016 38.4005 229.5 36.9026 229.5 35.0567C229.5 33.2108 229.016 31.7129 228.062 30.563C227.108 29.398 225.761 28.8079 224.035 28.8079C222.31 28.8079 220.963 29.3829 220.009 30.563C219.055 31.728 218.571 33.2259 218.571 35.0567C218.571 36.8874 219.055 38.3853 220.009 39.5503Z" fill="#202020"/>
<path d="M234.98 42.6369V27.4916H237.417L242.337 40.0799H242.382L247.256 27.4916H249.739V42.6369H247.922V30.1848H247.877C247.605 30.9715 247.377 31.607 247.196 32.0912L243.048 42.6369H241.58L237.432 32.0912L236.751 30.1848H236.706V42.6369H234.995H234.98Z" fill="#202020"/>
<path d="M253.841 42.6369V27.4916H260.153C261.743 27.4916 262.938 27.9757 263.756 28.9592C264.437 29.746 264.77 30.7143 264.77 31.8339C264.77 33.2411 264.361 34.3456 263.544 35.1172C262.726 35.8888 261.5 36.2822 259.881 36.2822H255.748V42.6369H253.841ZM255.748 29.1408V34.7389H259.729C260.774 34.7389 261.561 34.4969 262.091 33.9976C262.621 33.4983 262.893 32.8174 262.893 31.9247C262.893 31.032 262.636 30.3361 262.091 29.8519C261.561 29.3829 260.804 29.1408 259.835 29.1408H255.748Z" fill="#202020"/>
<path d="M265.527 42.6369L271.098 27.4916H273.232L278.833 42.6369H276.759L275.155 38.0222H269.115L267.48 42.6369H265.527ZM271.461 31.3952L269.66 36.4789H274.625L272.884 31.3952L272.203 29.2618H272.158C271.885 30.1091 271.658 30.8202 271.461 31.3952Z" fill="#202020"/>
<path d="M281.739 42.6369V27.4916H283.753L290.655 38.0222L291.76 39.974H291.806V27.4916H293.592V42.6369H291.639L284.691 32.0912L283.571 30.1999H283.525V42.6369H281.739Z" fill="#202020"/>
<path d="M301.978 42.6369V36.2217L296.483 27.4916H298.602L302.947 34.6936H302.992L307.397 27.4916H309.425L303.87 36.2671V42.6369H301.963H301.978Z" fill="#202020"/>
<path d="M5.30357 22.2005C5.38335 22.0524 5.40614 21.9613 5.39474 21.9158C5.39474 21.8588 5.33776 21.8816 5.38335 21.8018C5.20101 22.0752 5.23519 22.0866 5.2124 22.1664C5.2124 22.2233 5.21241 22.2461 5.2352 22.2461C5.26939 22.2461 5.32637 22.2005 5.30357 22.2005Z" fill="#DD1212"/>
<path d="M8.06155 24.7862L7.95898 25.2532L8.02736 25.4241L8.06155 24.7862Z" fill="#DD1212"/>
<path d="M8.44873 23.9889L8.5285 24.08L8.61967 23.7383L8.44873 23.9889Z" fill="#DD1212"/>
<path d="M21.8164 6.27631C21.8164 6.12823 21.7708 5.9232 21.7139 5.63843C21.7481 5.85485 21.7936 6.05989 21.8164 6.27631Z" fill="#DD1212"/>
<path d="M24.0503 19.5237C24.0731 19.649 24.0959 19.7857 24.1301 19.8882C24.1984 19.3415 24.1073 19.5693 24.0503 19.5237Z" fill="#DD1212"/>
<path d="M5.3607 39.2069L5.30371 39.1044C5.30371 39.1044 5.30371 39.1499 5.3607 39.2069Z" fill="#DD1212"/>
<path d="M26.7852 35.0721C26.7852 35.0721 26.7738 35.1062 26.7624 35.1404C26.7396 35.4593 26.7624 35.3226 26.7852 35.0721Z" fill="#DD1212"/>
<path d="M15.3209 11.8691L15.3096 11.9028L15.3321 11.8691H15.3209Z" fill="#DD1212"/>
<path d="M15.7879 10.8668C15.6853 11.3452 15.5372 11.5616 15.332 11.8578L15.8335 11.7097L15.7879 10.8668Z" fill="#DD1212"/>
<path d="M11.6172 17.9973C11.9021 18.0885 12.0161 18.134 11.6172 17.9973V17.9973Z" fill="#DD1212"/>
<path d="M18.5913 5.7637C18.5913 5.85483 18.5913 5.95734 18.5571 6.07125C18.5913 5.92317 18.6141 5.83205 18.5913 5.7637Z" fill="#DD1212"/>
<path d="M24.5853 15.2065V15.1724C24.4834 15.1156 24.5853 15.1724 24.5853 15.2065Z" fill="#DD1212"/>
<path d="M8.70028 23.351H8.66582L8.63135 23.3855C8.65432 23.3625 8.6773 23.351 8.68879 23.351H8.70028Z" fill="#DD1212"/>
<path d="M16.3109 39.5361C16.3109 39.5361 16.3109 39.5141 16.3109 39.5031C16.2999 39.5031 16.2888 39.5031 16.2778 39.5031C16.2888 39.5031 16.2999 39.5251 16.3219 39.5251L16.3109 39.5361Z" fill="#DD1212"/>
<path d="M27.3666 30.2766C27.4805 31.9282 27.2298 30.6638 27.1728 31.3587C26.8537 29.4336 27.4349 30.1057 27.1045 28.1351C27.15 28.4996 27.15 28.978 27.0361 28.6021C27.0019 28.1693 26.9449 27.5997 26.9449 27.3036V27.2808L25.7939 22.5878L25.5774 24.9343C25.5774 24.9343 25.5546 24.9001 25.5432 24.8887C25.5432 24.9115 25.566 24.9229 25.5774 24.9457V25.0596L24.8024 24.0458C24.7341 23.818 24.8594 23.9547 24.9848 24.1028C24.8252 23.8522 24.6657 23.7041 24.4719 23.3168C24.6201 23.3738 24.6999 23.294 25.0417 23.8066C24.791 23.4193 24.5517 23.0321 24.3466 22.6448C24.3466 22.5423 24.244 21.9727 24.3466 22.1208C24.187 21.4374 23.7654 20.5033 24.0275 19.5123C24.0275 19.4212 23.9933 19.4212 24.0503 19.0339C24.187 18.3049 24.3922 17.5417 24.905 16.4254C24.6771 15.9356 24.5403 15.6964 24.5061 15.5028L24.5403 15.3547L24.5745 15.2408C24.5745 15.2408 24.4947 15.2864 24.2896 15.2636C23.64 15.3889 24.1415 15.1041 23.9591 15.0016C23.8793 15.0016 23.7768 15.0016 23.6628 15.0244C22.9904 15.6395 22.2383 16.414 21.3494 17.1886C21.6913 16.7444 21.999 16.4938 22.3409 16.1634C22.056 16.3571 21.7597 16.6191 21.4406 16.8811C22.5004 15.5142 23.4235 14.9446 22.5118 15.48C22.4206 15.8217 21.4748 16.676 20.6315 17.6898C20.4149 17.9518 20.2212 18.2252 20.073 18.4644C20.0844 18.2366 20.0502 18.1568 20.073 17.8948C20.3124 17.2456 20.5061 17.1544 20.677 17.0519C21.1101 16.0268 20.187 17.6898 20.6428 16.4482C21.0531 15.6053 21.3038 14.9902 21.6115 13.8283C21.885 13.1791 21.6799 13.9878 21.8053 13.76C21.8166 13.5436 21.8508 13.3272 21.8508 13.1107C21.8964 12.9626 21.9192 13.0196 21.942 13.0538C22.0218 12.5298 21.7825 12.9626 21.9078 12.1539C21.7597 11.9147 22.432 10.5364 22.2041 9.52265C22.2611 9.28344 22.3181 9.64795 22.3864 9.56821C22.2155 8.17854 22.2611 8.3608 21.8964 7.26729C21.8964 6.94834 21.8394 6.6294 21.8053 6.29907C21.8394 7.01669 21.4862 6.17378 21.1101 5.49033V5.34225C21.3152 5.60424 21.4976 5.84344 21.5887 5.75232C21.5431 5.67258 21.4976 5.55868 21.4064 5.34225C21.4748 5.43338 21.5203 5.47894 21.5203 5.43338C21.5203 5.37642 21.4178 5.21695 21.281 5.00053C21.2924 4.84106 21.2924 4.6702 21.2924 4.48795L21.2013 4.46517C20.9277 3.75894 20.6087 3.00715 20.244 2.35788C19.8451 1.91364 19.5374 1.70861 19.1841 1.38967L18.9106 1.15046L18.8423 1.08212C18.8423 1.08212 18.7739 1.00238 18.7967 1.08212L18.8536 1.38967C18.9334 1.81113 19.0018 2.30093 19.0588 2.8249C18.9448 2.27815 18.8764 2.03894 18.7967 1.78834C18.7169 1.54914 18.6143 1.28715 18.489 0.899868C18.6827 1.25298 18.6941 0.979603 18.6599 0.672053C18.6599 0.592318 18.6371 0.512583 18.6257 0.432848V0.375894C18.6257 0.375894 18.6485 0.410066 18.6599 0.421457L18.7739 0.546755C18.9334 0.717616 19.093 0.922649 19.2525 1.16185C18.9106 0.660662 18.9334 0.580927 19.0132 0.637881L18.7169 0.330331L18.5687 0.170861C18.5687 0.170861 18.5346 0.136689 18.546 0.170861V0.239205C18.5801 0.421457 18.5801 0.603709 18.5687 0.797351C18.4092 0.250596 18.4206 0.523974 17.9875 0C18.1927 0.478411 18.2724 0.740397 18.1813 0.842914C18.2611 1.24159 18.3522 1.67444 18.4548 2.17563C18.5232 2.55152 18.5915 2.96159 18.6599 3.38305C18.6827 3.66781 18.7055 3.96397 18.7169 4.23735C18.7169 4.46517 18.7169 4.68159 18.7169 4.86384C18.6713 4.86384 18.6257 4.78411 18.6029 4.53351C18.5915 4.3057 18.5687 3.86146 18.489 3.00715C18.4662 4.6702 18.8309 5.37642 18.5118 6.15099C18.4092 6.6408 18.1357 7.22172 18.1357 7.0053L18.2041 6.83444C18.0901 7.1306 17.9306 7.47232 17.714 7.84821C17.4975 8.24689 17.2696 8.66834 17.0531 9.05563C16.6428 9.84159 16.3351 10.525 16.3807 10.6617C16.3465 10.6617 16.2097 10.3656 16.2097 10.2744L15.9135 11.8008C15.7539 12.0742 15.6058 12.3475 15.4576 12.6323C15.2183 12.6209 14.9562 12.5868 15.2639 11.9147C15.0815 12.1767 14.8422 12.5184 14.5687 13.1335C14.7055 12.9513 15.1157 12.7918 14.979 13.0652C14.375 13.6689 14.6143 13.5094 13.9305 14.2498C14.1357 13.9992 14.2382 14.4776 13.9305 14.8991C13.9305 14.8079 13.6342 14.7624 13.714 14.5801L13.2582 15.8217C13.3949 15.5256 13.0644 15.6167 12.8251 15.8103C12.9505 15.7306 12.1755 16.7444 12.0274 17.0861L12.392 16.6419C11.9704 17.257 11.8906 17.6784 11.8564 18.0771C11.845 18.3049 11.8336 18.5327 11.7994 18.8061C11.7083 18.453 11.6285 18.0999 11.5601 18.1454C11.6171 18.453 11.6855 18.7605 11.7653 19.0795C11.7425 19.2162 11.7083 19.3756 11.6741 19.5579C11.6741 19.4895 11.6057 19.387 11.5373 19.3415C11.4804 19.1706 11.4234 18.977 11.3664 18.7719C11.3664 18.7605 11.3664 18.7377 11.3664 18.7264C11.412 18.4302 11.4804 18.2024 11.5145 18.0771C11.5259 18.0543 11.5373 18.0201 11.5601 17.9974L11.5031 17.9746C11.5031 17.9746 11.4917 17.9746 11.4804 17.9746L11.241 17.8948C11.241 17.8948 11.241 17.7809 11.241 17.724C11.241 17.7012 11.2524 17.6784 11.2638 17.6784L10.8878 17.5531C10.808 17.6101 10.7738 17.5645 10.7738 17.4734L10.7396 17.1203L11.4006 17.6898C11.4917 17.7695 11.6057 17.9404 11.6513 17.929C11.6285 17.8834 11.6171 17.8037 11.6057 17.7126L11.3778 15.9356L10.6029 17.3823C10.5573 17.462 10.5231 17.5531 10.4775 17.6442H10.4433V17.667V17.7012L10.4319 17.7695V17.8151C10.2838 18.1454 10.1812 18.4644 10.1356 18.5327C10.1698 18.3277 10.2154 18.1113 10.2724 17.9062C10.1356 18.1682 10.0672 18.4188 10.0216 18.6694C10.0216 18.6352 10.0216 18.6125 10.033 18.5897C10.09 18.2024 10.2154 17.667 10.3521 17.3595L10.0103 17.257C10.0103 17.257 10.0103 17.1544 10.0103 17.0861C9.98747 17.0747 9.97607 17.0405 9.96467 17.0064L9.48603 15.2408L9.14415 16.7444C9.13275 16.8127 9.10996 16.8811 9.07578 16.9608L8.61993 16.8127C8.55155 17.4506 8.65411 17.9632 8.71109 18.3391H8.76807C8.75668 18.4302 8.73389 18.5327 8.72249 18.6466C8.82505 18.4758 8.93902 18.8972 9.06438 19.387C9.06438 19.649 9.09856 19.9338 9.14415 20.2299C9.14415 20.2527 9.14415 20.2755 9.13275 20.2983C9.39486 21.6993 9.2923 22.4739 9.2923 23.7952C9.24671 23.9205 9.16694 24.547 9.08716 24.2736C9.10996 24.4673 9.17834 24.6381 9.15555 25.0482C8.95042 25.8228 9.17834 24.137 8.93902 24.7293C9.05298 24.7862 9.04158 25.7886 9.05298 26.3695C9.24671 26.2101 9.18973 25.0254 9.14415 24.4445C9.22392 24.4445 9.30369 24.5698 9.37207 24.7862C9.31509 26.0278 9.18973 27.2125 9.08716 28.0326C9.04158 28.4085 8.97321 28.7388 8.89343 29.0578C8.75668 29.4906 8.55155 30.2196 8.19827 30.96C7.95895 30.1171 7.8108 29.1944 7.78801 28.511C7.73103 28.3174 7.66265 28.0212 7.61706 27.9415C7.58287 27.4744 7.57148 26.9732 7.58288 26.4493C7.63986 26.324 7.70824 26.1759 7.79941 26.005C7.87918 25.5722 7.86778 25.4697 7.83359 25.4241L7.85638 25.3558L7.82219 25.4013C7.82219 25.4013 7.73102 25.3558 7.90197 24.7179C7.86778 24.7634 7.8108 24.866 7.74242 24.9913C7.74242 24.9457 7.75382 24.9115 7.76522 24.866L7.70823 25.0596C7.70823 25.0596 7.69684 25.0824 7.68545 25.1052C7.70824 24.9343 7.73103 24.7521 7.76522 24.5812C7.78801 24.547 7.8222 24.5015 7.84499 24.4445C7.8108 24.4787 7.788 24.4787 7.77661 24.4673C7.85638 24.0117 7.97035 23.556 8.1185 23.089L8.4034 23.2257L8.32363 23.351C8.32363 23.351 8.38061 23.3282 8.4148 23.2257C8.4148 23.2143 8.41479 23.2029 8.42619 23.1915H8.4148L8.1185 23.0548C8.1185 23.0548 8.1185 23.0321 8.1185 23.0207C8.1185 23.0207 8.1071 23.0434 8.09571 23.0548L7.79941 22.9181H7.78801C7.78801 22.9181 7.78801 22.9409 7.78801 22.9523L7.53729 22.8384H7.5031C7.32077 23.0776 7.50311 22.9979 7.14983 23.5219C7.34356 23.2826 7.19541 23.8408 7.09284 24.3648C7.01307 24.8887 6.94469 25.3672 7.13843 24.9571C6.81934 25.5722 6.9219 26.062 6.71677 26.9049C6.71677 26.9049 6.71677 26.9049 6.72817 26.8935C6.55722 27.7023 6.42047 28.6135 6.37489 29.6387C6.16976 33.7393 7.37775 36.1428 7.37775 36.1428C7.37775 36.1428 4.77943 34.6392 4.97316 29.035C5.05293 26.8479 5.22388 25.3558 5.41761 24.342C5.63414 23.875 5.93044 23.351 5.89625 23.2143L5.66833 23.6927C5.70251 23.5219 5.66833 23.4649 5.59995 23.4877C5.79369 22.7245 5.96463 22.4283 6.01021 22.36C5.96463 22.4283 5.61135 22.9523 5.17829 23.8066C4.93897 24.023 4.68826 24.2509 4.60849 24.1711C4.48313 24.9913 3.41189 26.0506 3.43469 27.4858C3.30933 27.7706 3.4005 27.2125 3.30933 27.3605C3.34352 27.725 3.27514 28.1351 3.1156 28.8869V28.7958C2.97884 29.8779 2.94466 30.6638 2.96745 31.484C3.00164 32.2927 3.02443 33.1129 3.24095 34.3317L3.34351 34.1266C3.42329 34.6392 3.42329 34.7531 3.44608 35.0037C3.77657 35.5391 3.12699 33.5685 3.48027 34.0469C3.4005 34.4114 3.61703 35.3113 3.90193 36.177C4.20963 37.0313 4.60849 37.8172 4.61988 38.102C5.06433 38.8196 4.61988 37.8172 5.06433 38.5234L5.13271 38.7513L5.34924 38.8538C5.64553 39.3094 5.79368 39.56 5.7481 39.6283C5.66833 39.5258 5.4632 39.3664 5.37203 39.2524C5.74811 39.8903 6.84213 40.6763 7.03587 40.8016C6.81934 40.6421 6.6256 40.4371 6.43186 40.2548C7.32076 40.9838 8.42619 41.6217 9.5886 42.0546C10.751 42.4646 11.9476 42.7038 13.0074 42.7836L12.8593 42.6925C14.4661 42.7722 14.1357 42.9544 15.9135 42.9317H15.8451C16.1984 42.8861 16.677 42.8291 17.1556 42.795C16.7112 42.9203 18.0217 42.8519 17.4405 43C19.1841 42.6013 18.3066 42.7608 19.3779 42.2824L19.6628 42.3052C20.0161 42.1001 20.0389 42.0546 20.8366 41.7015C20.1984 42.0546 21.4292 41.6445 20.7112 42.0546C21.6343 41.8154 22.2383 41.3939 22.6941 41.0408C23.15 40.6877 23.4805 40.3915 23.9249 40.2321C24.415 39.4803 22.5346 41.1205 22.8765 40.756C22.5004 40.9041 23.3323 40.1865 23.7768 39.822C24.187 39.4119 24.8252 39.4461 25.7369 38.2045C25.6457 38.3412 25.6571 38.3526 25.566 38.4665C25.9762 38.045 26.1358 37.4413 26.5232 36.8376C26.5119 36.4048 26.8309 35.9605 26.6486 35.7897C26.5232 36.2339 26.4093 36.6895 26.2155 37.1224C26.5118 36.3592 26.4663 35.596 26.774 34.3658C26.7968 34.4683 26.8309 34.8556 26.7854 35.1176C26.9335 34.7645 26.8537 34.4 26.9791 34.0241C27.1956 34.1608 26.8309 35.6985 26.6372 36.5642C26.8879 36.1883 26.9107 34.9468 27.0475 35.4252C26.8993 34.7645 27.3438 33.933 27.1614 32.8964L27.2982 32.9648C27.2754 32.8053 27.2298 32.4636 27.2298 32.1674C27.2868 32.3497 27.3438 32.5205 27.4007 32.7028C27.2754 31.8713 27.5147 31.0967 27.3666 30.3107V30.2766ZM17.5659 39.9017C17.5659 39.9017 17.5431 39.9017 17.5317 39.9017L17.9192 40.7788L17.3038 40.4485C17.2126 40.4029 17.1556 40.3687 17.1442 40.4485C16.9847 40.5054 17.0872 40.6307 16.9847 40.6877C16.9847 40.6649 16.9961 40.6193 16.9733 40.6193L16.8593 40.7674C16.8593 40.7674 16.9733 40.6649 16.8365 40.6079C16.6086 40.7105 16.4719 40.7788 16.2781 40.6991C16.0046 40.7219 16.3807 40.9952 16.1414 40.9497C16.1186 40.8244 16.0958 40.6877 15.959 40.6535C15.8793 40.7332 15.8793 40.8244 15.7425 40.8585L15.7653 40.6763C15.6513 40.6763 15.5488 40.6877 15.5602 40.551C15.4576 40.6193 15.3892 40.5966 15.3436 40.551C15.1499 40.6193 15.4234 40.9383 15.4576 41.0066C15.2981 40.8472 15.1613 40.9041 15.0929 40.6763L15.2525 40.6535C14.9562 40.3801 14.8878 40.8585 14.808 40.4485C14.922 40.494 15.0701 40.4143 15.0245 40.3004L14.8422 40.3574C14.8422 40.3574 14.9448 40.346 14.8764 40.2776C14.8194 40.3118 14.7055 40.3801 14.6599 40.4257L14.3636 40.3801C14.4206 40.4029 14.4434 40.346 14.3978 40.3232L14.1812 40.3687C14.2496 40.3346 14.204 40.2662 14.1243 40.2207C13.8963 40.1068 13.8052 40.551 13.6684 40.3118C13.6912 40.3232 13.7026 40.3118 13.7368 40.3118L13.6684 40.1979C13.5203 40.5624 13.0872 40.027 12.9163 40.3687C12.8365 40.1637 12.9505 40.2776 13.1898 40.1865L13.0872 40.027C13.1556 40.027 13.1898 40.084 13.2695 40.0726C13.1442 39.8448 12.8821 39.9701 12.7339 40.0042C12.6883 39.9245 12.9163 39.765 12.6883 39.7309C12.3693 39.6625 12.62 40.0156 12.4262 39.9701L12.392 39.7309C12.1071 39.7309 12.0046 39.5372 11.845 39.4005C11.7994 39.3891 11.7653 39.4005 11.7425 39.4005C11.6057 39.2069 11.241 39.298 11.1385 39.1272C11.1955 39.1272 11.1385 38.9677 11.1613 38.9221C11.0587 38.8879 10.9447 38.8538 10.8422 38.8196C10.9789 38.8766 11.0587 38.774 11.1499 38.7057C11.0701 38.6601 10.9903 38.6715 10.9333 38.6374C10.9903 38.6374 11.0473 38.6374 11.0473 38.5576L10.694 38.4779C10.694 38.4779 10.7168 38.5348 10.7282 38.5576C10.6712 38.5007 10.4889 38.4323 10.4889 38.2728C10.5231 38.2501 10.5801 38.2501 10.6256 38.2273C10.5915 38.3868 10.7168 38.3412 10.808 38.3184C10.637 38.1817 10.7852 38.2615 10.7738 38.1362C10.6712 38.0223 10.5231 38.0792 10.4661 38.1703C10.3863 38.0109 10.3749 37.9539 10.1698 37.8856L10.3179 37.8172L10.1812 37.7147H10.4091C10.318 37.3958 10.1584 37.8172 10.033 37.4869L10.147 37.4072C10.033 37.3274 9.81652 37.4072 9.89629 37.2363C9.75954 37.1679 9.85071 37.5325 9.66837 37.2819C9.70256 37.2021 9.67977 37.0768 9.66837 36.9857C9.5658 36.9287 9.55441 37.1338 9.61139 37.1793C9.33788 36.7921 9.8849 36.7123 9.55441 36.4276C9.52022 36.5984 9.25811 36.4276 9.40626 36.7351C9.25811 36.6212 9.46324 36.3706 9.25811 36.2681L9.46324 36.3023C9.46324 36.3023 9.36067 36.2111 9.32648 36.1883L9.45184 36.1542C9.15554 36.0403 9.42905 35.7669 9.09856 35.7441C9.36067 35.7441 9.04158 35.6074 9.09856 35.4935C9.30369 35.6074 9.23532 35.9491 9.46324 35.9036C9.49743 35.8125 9.37207 35.7783 9.41765 35.6872C9.46324 35.7213 9.54301 35.7783 9.5886 35.7783C9.63418 35.5049 9.33788 35.4593 9.24671 35.3227C9.2809 35.4024 9.32648 35.4821 9.37207 35.5619C9.15554 35.6074 9.3037 35.4593 9.10996 35.4252C9.20113 35.2657 8.996 35.1973 9.05298 35.0721C9.05298 35.1062 9.07577 35.0948 9.08716 35.129C9.04158 34.9126 9.21253 34.7873 9.30369 34.6848C9.30369 34.6848 9.30369 34.6848 9.2809 34.6848C9.2809 34.6278 9.21253 34.5139 9.14415 34.3658C9.08717 34.3089 9.24672 34.7417 8.95042 34.6164C9.20113 34.4456 8.95042 34.3544 8.95042 34.0811L8.89343 31.7004L9.63418 33.1242L9.26951 31.2448L10.4775 32.7142C10.5687 32.8281 10.6484 32.942 10.5915 33.0559C10.8308 32.9762 10.4319 32.8281 10.6598 32.7711C10.6598 32.8281 10.6484 32.8736 10.694 32.9534L10.7738 32.8395C10.8422 32.9534 10.8878 33.0445 10.9333 33.1242C11.0587 33.0673 11.1954 33.0331 11.1271 32.8964C11.2296 32.9648 11.3664 32.9762 11.4917 32.9875L11.6627 32.7256C11.6627 32.7256 11.6855 32.8509 11.7425 33.0445C11.788 33.0673 11.8336 33.0901 11.8564 33.147L11.8792 33.0445C11.9704 33.1242 11.8792 33.2268 11.8336 33.3179C12.0502 33.9216 12.5516 34.9468 13.6684 36.177C13.8849 36.4162 14.1129 36.6326 14.3408 36.8262C14.3636 36.8262 14.375 36.8262 14.3978 36.8148L14.1357 36.1428L15.6627 37.635C15.6627 37.635 15.7653 37.7033 15.8223 37.7375C15.8451 37.7375 15.8565 37.7375 15.8907 37.7261C15.9704 37.8058 16.0616 37.8058 16.1642 37.783C16.2211 37.7717 16.2781 37.7489 16.3465 37.7261L16.3921 37.7033C16.5061 37.6805 16.6086 37.6919 16.6998 37.7944C16.7226 37.783 16.7682 37.7717 16.791 37.7603C16.9277 37.8058 16.8365 37.8172 16.7682 37.8514C16.8707 37.8856 16.9619 37.9311 17.0417 37.9539C17.0873 37.9425 17.1442 37.9311 17.1556 37.8856C17.1556 37.9311 17.1556 37.9425 17.1556 37.9539C17.1784 37.9539 17.1898 37.9539 17.2126 37.9539V37.8286C17.3836 37.783 17.5203 37.7603 17.6571 37.783L17.6798 37.635C17.8166 37.6805 18.0673 37.6122 18.2383 37.6578L18.1471 38.3981C18.1813 38.3412 18.2041 38.2842 18.1927 38.2387L18.1015 38.9449C18.0901 38.9449 18.0787 38.9449 18.0673 38.9449L18.0445 39.1044L20.6201 39.9701L17.5773 39.9131L17.5659 39.9017ZM23.2867 31.2334C23.3323 31.4726 23.3551 31.7232 23.3437 31.9624C23.3323 31.9054 23.2526 31.8371 23.1956 32.0421C23.3437 31.6548 23.1044 31.2562 23.2981 31.0625C23.1272 31.0511 23.0132 31.1764 22.8879 30.9942C22.9107 31.3473 22.979 31.6321 23.0132 31.894C23.0816 32.1674 23.1272 32.418 23.1272 32.68C23.0132 32.885 22.8765 33.0787 22.7283 33.2495L22.7853 33.3179H22.5574C22.5574 33.4204 22.5574 33.4887 22.546 33.4887C22.5232 33.4887 22.5118 33.4546 22.5004 33.4204C22.4776 33.4887 22.4548 33.5457 22.4548 33.5913C22.3523 33.5571 22.3181 33.3976 22.2725 33.2268L22.2155 33.2495C22.1813 33.5685 22.0788 33.9558 22.3637 33.8077L22.0446 34.0469C21.8736 34.5025 21.9306 34.4456 21.5773 34.924C21.5089 34.8898 21.5887 34.7531 21.4748 34.7759C21.2924 35.2429 20.5061 35.1062 20.5403 35.3227C20.2668 35.5163 20.4947 35.5391 20.3124 35.6758C20.3124 35.653 20.3124 35.6074 20.2554 35.6188L20.0616 35.8466C19.9477 35.8352 20.2554 35.6644 19.9591 35.7099C19.526 35.9491 19.2297 36.1086 18.7967 36.0517C18.1927 36.12 19.0816 36.325 18.5574 36.325C18.4776 36.2111 18.4092 36.0858 18.1015 36.0403C17.9306 36.1086 17.942 36.1997 17.6457 36.2225L17.6912 36.0403C17.4291 36.0175 17.224 35.9833 17.2582 35.858C17.0417 35.8808 16.9049 35.8352 16.8024 35.7783C16.3921 35.7555 16.9733 36.2111 17.0645 36.2909C16.6998 36.0744 16.4263 36.0403 16.2895 35.7555L16.6314 35.8352C16.0388 35.3682 15.8679 35.8125 15.7425 35.2999C15.9476 35.4479 16.2553 35.4593 16.1756 35.3227C16.0502 35.3227 15.9476 35.2771 15.8223 35.2429C15.8109 35.186 16.016 35.3113 15.9021 35.186C15.7995 35.1746 15.5716 35.1518 15.4576 35.1632C15.2639 35.0721 15.0929 34.924 14.9106 34.8101C15.0018 34.8898 15.0701 34.8556 14.979 34.7759C14.8536 34.7076 14.7055 34.662 14.5915 34.5823C14.7169 34.6392 14.6599 34.5025 14.5459 34.3544C14.2154 33.9444 13.9305 34.3317 13.8052 33.876C13.8394 33.933 13.8621 33.9216 13.8963 33.9672L13.828 33.7507C13.4519 33.9558 13.0872 32.7142 12.7567 32.8509C12.7681 32.4864 12.8137 32.8053 13.1898 33.0559C13.167 32.942 13.1328 32.8281 13.1214 32.7142C13.1898 32.8281 13.224 32.9306 13.3379 33.0331C13.2468 32.6003 12.9391 32.3269 12.7339 32.156C12.7339 31.9852 13.0302 32.156 12.8251 31.7687C12.5402 31.1992 12.5972 31.9852 12.4262 31.6321L12.5174 31.3017C12.2439 30.8803 12.2553 30.4816 12.2211 30.0829C12.1869 29.9918 12.1641 29.9576 12.1299 29.9348C12.1299 29.4906 11.8108 29.0577 11.8336 28.716C11.8792 28.7844 11.9362 28.5224 11.9818 28.4768L11.8336 27.8959C11.902 28.1579 12.016 28.1351 12.1299 28.1807C12.1071 27.9984 12.0388 27.9187 12.0274 27.7934C12.073 27.8731 12.1185 27.9415 12.1641 27.8503C12.0844 27.6453 12.0274 27.4517 11.9704 27.2466C11.9476 27.2808 11.9362 27.3491 11.9362 27.4061C11.9362 27.258 11.8678 26.9163 11.9704 26.7113C12.016 26.734 12.0502 26.8138 12.0957 26.8252C11.9704 27.0074 12.073 27.1099 12.1527 27.2011C12.1413 26.7796 12.1869 27.0985 12.2667 26.9049C12.2667 26.6087 12.1185 26.4834 12.016 26.5632C12.0843 26.2328 12.1185 26.1303 12.0388 25.7772L12.1869 25.857L12.1641 25.538L12.3351 25.8114C12.4946 25.2305 12.073 25.6747 12.2439 25.0254H12.3806C12.3579 24.7862 12.1413 24.6609 12.3351 24.4901C12.2895 24.2395 12.073 24.866 12.1413 24.2964C12.2325 24.2053 12.3123 24.0003 12.3693 23.8522C12.3351 23.6585 12.1869 23.9661 12.1869 24.08C12.2667 23.2143 12.7453 23.6358 12.6997 22.8498C12.5516 23.089 12.4832 22.5878 12.3693 23.1915C12.3465 22.884 12.6655 22.6562 12.5858 22.3258L12.7225 22.5536C12.7453 22.4511 12.7111 22.3144 12.6997 22.2461L12.8251 22.303C12.6655 21.8816 13.0758 21.631 12.8251 21.3462C13.0302 21.5513 12.8707 21.0615 12.996 20.9362C13.0986 21.2779 12.7909 21.8132 13.0074 21.9044C13.0986 21.7791 13.0302 21.631 13.1214 21.5057C13.1214 21.6082 13.1556 21.7563 13.2012 21.8019C13.4291 21.3576 13.2354 21.0387 13.2468 20.7425L13.1784 21.2551C12.9733 21.164 13.1898 21.0159 13.053 20.8336C13.2354 20.6058 13.11 20.3666 13.2354 20.1844C13.224 20.2413 13.2354 20.2527 13.2354 20.2983C13.3721 19.7515 13.7596 19.6946 13.828 19.4781C13.9191 19.2731 13.9077 18.8403 13.771 18.9656C13.7596 18.7719 13.6342 19.706 13.4405 19.3187C13.8507 19.1023 13.4861 18.6466 13.9191 18.0315C13.9419 18.3619 14.1584 17.9176 14.1584 18.2024C14.2268 17.8721 14.1812 17.8493 14.1357 17.6784L14.2724 17.6101C14.1812 17.1203 14.1015 17.4506 14.1926 16.7785C14.1926 17.0177 14.4206 16.5735 14.4434 16.7672C14.5117 16.5963 14.5459 16.414 14.5345 16.266V16.3001C14.5687 16.1862 14.6029 16.0951 14.6371 16.0268L15.0473 15.0927L15.412 15.8217C15.469 15.6053 15.526 15.4003 15.5716 15.1952L15.4234 15.4686C15.4804 15.3889 15.5146 14.8877 15.7083 14.6713C15.6969 14.7282 15.6855 14.8193 15.6627 14.8649C15.7311 14.8877 15.8679 14.8193 15.959 14.6371L15.8907 14.5232L16.0046 14.4776C16.13 14.1928 15.8223 14.5004 15.9476 14.2156C16.0616 14.1928 16.1642 14.0675 16.2781 13.8739L16.8479 12.8829L17.0873 13.5664C17.1898 13.3499 17.2924 13.1221 17.3949 12.8146V12.8601C17.5659 12.6095 17.6115 12.4501 17.5545 12.2906C17.6343 12.2564 17.5773 12.4615 17.6798 12.3817C17.5659 11.7552 18.3408 11.5502 18.2838 11.1743C18.3864 11.2426 18.546 11.1971 18.7055 11.1515C18.9106 10.787 19.0474 10.6048 19.0474 10.6048C19.0474 10.6048 19.0018 10.7984 18.9106 11.106C19.0132 11.106 19.0816 11.1174 19.093 11.2426L19.1727 11.0604C19.2867 11.2085 18.865 11.6072 18.979 11.8008C18.865 11.9147 18.7625 12.0286 18.6485 12.1539C18.6371 12.2109 18.6143 12.2792 18.6029 12.3362C18.6371 12.3703 18.6713 12.3931 18.7055 12.3475C18.6485 12.4956 18.5915 12.6209 18.7739 12.4728C18.6599 12.5981 18.5688 12.7462 18.4776 12.8943C18.0673 14.6371 17.5089 17.143 17.1214 19.6262C17.1214 19.649 17.1214 19.6718 17.1214 19.706C17.1214 19.7287 17.11 19.7287 17.0986 19.7401C17.0759 19.8654 17.0531 19.9907 17.0417 20.1274C17.0417 20.1274 17.0417 20.1502 17.0303 20.1616C17.0075 20.2983 16.9961 20.435 16.9733 20.5717C16.9961 20.64 17.0189 20.697 17.0645 20.7083C17.0303 20.7767 16.9961 20.6856 16.9619 20.6742C16.9619 20.6742 16.9619 20.697 16.9619 20.7083L16.9847 20.9817C16.9847 20.9817 16.9391 20.9817 16.9163 20.9817C16.8707 21.3234 16.8479 21.6424 16.8137 21.9613L16.8479 21.8816L16.791 22.0866C16.7568 22.417 16.7112 22.7473 16.6884 23.0662C16.7226 23.1004 16.7568 23.2143 16.791 23.294C16.6314 23.818 16.7568 24.6951 16.7568 25.0824C16.8707 25.7317 17.0645 26.2442 17.3038 26.6315C17.4177 26.6657 17.5203 26.6657 17.5887 26.6087C17.3949 26.4948 17.0986 26.1417 17.224 26.0164C17.3722 26.1873 17.5659 26.4721 17.6912 26.4151C17.6343 26.6999 17.4405 26.1303 17.4405 26.4493C17.5317 26.5632 17.6115 26.586 17.6798 26.6201C17.5659 26.586 17.6343 26.8138 17.6343 26.8707C17.9534 27.2238 18.1357 27.4858 18.6485 27.6567C18.6485 27.6567 18.6485 27.6681 18.6485 27.6795C18.7625 27.7023 18.865 27.7136 18.9676 27.725C19.1499 27.6111 19.2639 27.4175 19.1727 27.3491C19.3665 27.2808 19.4349 27.3719 19.5146 27.2011C19.2183 27.2466 19.583 27.2011 19.4121 26.996C19.469 26.6315 19.526 26.9391 19.5944 26.8138C19.5944 26.734 19.5602 26.5404 19.526 26.4721C19.6628 26.4379 19.754 27.053 19.9021 27.1327C19.9021 27.1099 19.9135 27.0985 19.9135 27.0758C19.9249 26.9505 19.9477 26.8479 19.9705 26.7226L19.9021 26.6315V26.5518L19.9705 26.6771C19.9933 26.5404 20.0161 26.4037 20.0388 26.267C19.8907 25.9025 19.697 25.538 19.5602 25.538C19.4918 25.3444 19.7539 25.3785 19.7995 25.2646C20.0275 25.1621 19.9819 24.4559 20.1756 24.285C20.1414 24.4103 20.1186 24.5356 20.0844 24.6723C20.1186 24.6951 20.3237 24.1825 20.3579 24.023C20.3579 24.1142 20.301 24.7634 20.3807 24.7748C20.5973 24.3534 20.9163 23.3738 20.9277 23.0776C20.734 23.4193 20.5745 23.7497 20.4377 24.0914C20.3921 23.8408 20.7682 23.3396 20.7568 23.0548L21.3038 22.4967C21.224 22.5992 21.0075 22.9181 21.0759 22.9751C21.3038 22.6903 21.2127 22.8384 21.3266 22.8498C21.1899 23.1232 20.9619 23.6813 20.8366 24.1825C20.8138 24.2395 20.8024 24.3192 20.7796 24.4103C20.9277 24.1597 21.0531 23.9889 21.1329 23.8977C21.1329 23.8522 21.1557 23.818 21.1671 23.7952C21.2696 23.4991 21.2582 23.4877 21.2924 23.351C21.3266 23.2143 21.3494 23.1004 21.3608 23.0321C21.4064 23.2143 21.2696 24.0117 21.2468 24.08C21.2696 24.6609 21.4748 23.294 21.7369 23.3282C21.7369 23.3624 21.7369 23.3966 21.7369 23.4307V23.2826L21.7027 23.0662C21.7255 23.0434 21.7597 23.0321 21.8053 23.0207C21.8166 23.4649 21.828 24.0686 21.8622 23.8408C21.7938 24.3876 21.6343 25.1052 21.5659 25.0824C21.6685 25.0254 21.7825 25.0482 21.885 25.1735C21.8508 25.1052 21.6343 25.743 21.5887 25.7886C21.6115 26.0278 21.9078 25.743 21.9192 25.4469C21.8736 25.9595 21.8736 26.0848 21.8622 26.2101C21.8622 26.3354 21.8394 26.4721 21.7825 26.7796C21.828 26.9049 22.0218 26.5176 22.0218 26.3354C22.1585 26.6771 22.1813 26.9732 22.2155 27.1441C22.0674 26.8707 21.942 26.9391 21.8053 27.0758C21.7483 27.1327 21.7027 27.1897 21.6457 27.2352C21.6685 27.3377 21.7027 27.4289 21.7369 27.52C21.9762 27.6339 22.2383 27.782 22.4776 27.7934C22.432 27.7934 22.1699 27.8845 22.1471 27.8959C22.3751 27.7934 22.9904 28.7958 23.1044 29.3539L23.0702 29.2742C22.9677 29.1944 23.0246 29.6615 23.1386 29.8437C23.0816 29.8209 23.093 29.7754 23.0702 29.6956C22.9791 30.0829 23.5489 30.1171 23.3551 30.5385C23.3551 30.1854 23.2526 30.1285 23.1614 30.1626C23.2753 30.436 23.2184 31.0967 23.4805 30.96C23.4121 31.1423 23.4349 31.3131 23.2867 31.2903V31.2334Z" fill="#DD1212"/>
<path d="M22.7395 32.7825C22.6711 32.8736 22.6141 32.9534 22.5913 33.0331C22.6939 32.9534 22.7623 32.8736 22.7395 32.7825Z" fill="#DD1212"/>
<path d="M14.3975 36.8824C14.3975 36.8824 14.3975 36.8824 14.4085 36.8824H14.4305V36.8604C14.4305 36.8604 14.4195 36.8604 14.4085 36.8714L14.3975 36.8824Z" fill="#DD1212"/>
<path d="M16.1982 39.4689C16.1982 39.4689 16.221 39.4917 16.2438 39.4917C16.2666 39.4803 16.2894 39.4689 16.3008 39.4575V39.4233C16.3008 39.4233 16.2324 39.4461 16.1982 39.4689Z" fill="#DD1212"/>
<path d="M15.1729 40.5738C15.1956 40.6649 15.2982 40.5852 15.3438 40.5738C15.2754 40.5168 15.2526 40.4371 15.1729 40.5738Z" fill="#DD1212"/>
<path d="M14.8876 37.2363C14.8876 37.2363 14.9331 37.2705 14.9445 37.2819L14.9103 37.2477V37.2021L14.9787 37.3046C15.1155 37.3958 15.2408 37.4755 15.3776 37.5552C15.4118 37.5325 15.446 37.5211 15.4915 37.5097L14.8306 36.9287L14.8876 37.2363Z" fill="#DD1212"/>
<path d="M16.3007 38.0107C16.3007 38.0107 16.3007 38.0107 16.2896 38.0218C16.2896 38.0218 16.3007 38.0218 16.3119 38.0218V37.9995L16.3007 38.0107Z" fill="#DD1212"/>
<path d="M16.4488 39.3664C16.4488 39.3664 16.426 39.3778 16.4146 39.3778C16.3804 39.4005 16.3462 39.4347 16.312 39.4461V39.4917C16.369 39.4917 16.426 39.4689 16.4716 39.4461C16.4716 39.4347 16.4716 39.4119 16.483 39.4005L16.426 39.4347L16.4488 39.3664Z" fill="#DD1212"/>
<path d="M22.3409 32.9306C22.3067 32.9989 22.2725 33.0673 22.2383 33.1242C22.2383 33.1584 22.2497 33.1812 22.2611 33.2154C22.3181 33.1812 22.3864 33.147 22.4434 33.1242C22.4206 33.0331 22.3978 32.9534 22.3409 32.9306Z" fill="#DD1212"/>
<path d="M16.4263 35.6985C16.4605 35.801 16.677 35.7897 16.7682 35.7897C16.6314 35.6985 16.5744 35.5846 16.4263 35.6985Z" fill="#DD1212"/>
<path d="M22.1587 33.2723C22.1587 33.2723 22.1815 33.2723 22.2043 33.2495C22.2043 33.2267 22.2043 33.204 22.2043 33.1812C22.1929 33.204 22.1701 33.2381 22.1587 33.2723Z" fill="#DD1212"/>
<path d="M16.4717 38.102C16.4717 38.102 16.5173 38.0336 16.5287 38.0109L16.4033 38.0678C16.4033 38.0678 16.4489 38.0906 16.4717 38.102Z" fill="#DD1212"/>
<path d="M16.5972 37.8172C16.5972 37.8172 16.6428 37.8286 16.6769 37.8286C16.6769 37.8286 16.6769 37.8058 16.6997 37.8058C16.6655 37.7831 16.62 37.7717 16.6086 37.8058L16.5972 37.8172Z" fill="#DD1212"/>
<path d="M17.3149 38.1248C17.3149 38.1248 17.2922 38.2159 17.2808 38.2614C17.3491 38.2842 17.4175 38.3184 17.4745 38.3526V38.307V38.364C17.5087 38.3867 17.5657 38.3981 17.6113 38.4209C17.5201 38.307 17.3263 38.1361 17.3149 38.1248Z" fill="#DD1212"/>
<path d="M18.546 6.13949C18.546 6.13949 18.546 6.13949 18.546 6.12812C18.546 6.10538 18.546 6.09401 18.546 6.08264C18.546 6.10538 18.546 6.11675 18.5347 6.15086L18.546 6.13949Z" fill="#DD1212"/>
<path d="M21.6457 5.61563C21.6457 5.68398 21.6229 5.70676 21.6001 5.72954C21.6457 5.80927 21.6799 5.79788 21.6457 5.61563Z" fill="#DD1212"/>
<path d="M24.0386 19.4554V19.4895C24.0386 19.4895 24.0386 19.5236 24.0499 19.5236V19.4554H24.0386Z" fill="#DD1212"/>
<path d="M6.88738 24.6951C6.86459 24.9343 6.8418 25.1621 6.8418 25.4013C6.86459 25.0596 6.92157 24.9457 6.96716 24.7862C6.93297 24.7862 6.86459 24.9229 6.89878 24.7065L6.88738 24.6951Z" fill="#DD1212"/>
<path d="M8.59701 28.8869L8.57422 29.2628C8.65399 29.0692 8.68818 29.0578 8.76795 28.9552L8.59701 28.8869Z" fill="#DD1212"/>
<path d="M8.91621 26.9846C8.88202 26.9049 8.88202 25.8228 8.80225 26.8252C8.84783 26.9049 8.80224 27.7136 8.91621 26.9846Z" fill="#DD1212"/>
<path d="M5.81641 24.08L6.14689 23.5902L5.87338 23.8863L5.81641 24.08Z" fill="#DD1212"/>
<path d="M6.44294 22.5878C6.38596 22.6903 6.2606 22.9181 6.16943 22.9865L6.39735 22.9637L6.44294 22.5878Z" fill="#DD1212"/>
<path d="M24.3579 14.8877C24.2553 14.7738 24.073 14.6713 23.8906 14.5004C24.2667 14.8307 24.2781 15.0699 24.3579 14.8877Z" fill="#DD1212"/>
<path d="M12.8818 2.25538C12.8818 2.25538 13.03 2.19843 13.0072 2.22121C13.0072 2.18704 12.9046 2.25538 12.8818 2.25538Z" fill="#DD1212"/>
<path d="M9.59997 10.6162L9.47461 10.5478C9.47461 10.6503 9.53159 10.6048 9.59997 10.6162Z" fill="#DD1212"/>
<path d="M11.1043 7.41527C11.1043 7.41527 11.1043 7.41527 11.1156 7.41527C11.1043 7.34706 11.093 7.3698 11.1043 7.41527Z" fill="#DD1212"/>
<path d="M11.6978 11.5739V11.5616L11.6855 11.5739H11.6978Z" fill="#DD1212"/>
<path d="M11.7652 11.7324C11.6171 11.6527 11.6399 11.6185 11.6855 11.573H11.3208L11.7652 11.7324Z" fill="#DD1212"/>
<path d="M9.81621 12.2792L9.74784 12.3703C9.74784 12.3703 9.72505 12.3476 9.72505 12.3248C9.5655 12.507 10.0213 12.4045 9.99856 12.6095C9.98716 12.6893 9.93018 12.7462 9.8846 12.7007L10.01 12.8374C10.01 12.8374 9.94157 12.8829 9.94157 12.8374L10.0213 13.0652H10.01C10.0783 13.088 10.1809 13.1449 10.2379 13.1677C10.1923 13.236 10.1923 13.1449 10.1467 13.1677L10.2721 13.2702C10.1923 13.3499 10.0669 13.2702 10.0555 13.1677C9.71365 13.3841 10.1695 13.2474 10.0213 13.5664L9.94157 13.4525C9.74784 13.5891 9.85041 13.6689 9.75924 13.8397C9.81622 13.7828 10.0099 13.4638 10.1467 13.5778C10.1353 13.6233 10.1353 13.6803 10.2265 13.7372C10.1011 13.7714 10.1467 13.8397 10.1809 13.9309L10.01 13.9764C10.0897 14.0562 10.1809 14.022 10.2721 14.0562C10.2949 14.1701 10.1695 14.2384 10.0669 14.3068C10.1011 14.489 10.2379 14.1131 10.3404 14.3068C10.3404 14.4776 10.4316 14.546 10.6025 14.6827C10.5798 14.808 10.4886 14.7054 10.4544 14.7624L10.6253 14.7966C10.6253 14.7966 10.5912 14.8307 10.5684 14.8307C10.6481 14.8877 10.7393 14.7624 10.8305 14.8649C10.9102 14.8421 10.8988 14.8877 10.8761 14.9674L10.6595 16.004L11.6282 14.7054C11.6852 14.6257 11.7991 14.5004 11.651 14.4321C11.6966 14.3865 11.765 14.4321 11.8333 14.4093C11.651 14.2498 11.708 14.2726 11.48 14.1359L11.5826 13.9878C11.4914 14.0676 11.3661 14.0334 11.2521 13.965C11.2521 13.9309 11.2521 13.9081 11.2293 13.8739C11.3319 13.8967 11.4345 13.9195 11.5142 13.8967C11.4915 13.8967 11.4687 13.8625 11.4573 13.8397C11.4914 13.8397 11.5142 13.8511 11.537 13.8397C11.5598 13.8397 11.5142 13.817 11.4687 13.7942L11.6624 13.7372H11.5826L11.6852 13.498C11.6168 13.4525 11.537 13.4069 11.4573 13.3499C11.4914 13.3386 11.5256 13.3158 11.5256 13.2816C11.5826 13.2246 11.2749 13.1221 11.2863 12.974C11.3433 12.974 11.4117 12.9513 11.4914 12.9513C11.3091 13.031 11.5826 13.1563 11.5484 13.2816C11.5598 13.2133 11.651 13.2246 11.6738 13.236L11.4914 13.0082C11.6396 13.0082 11.594 12.9513 11.6624 12.8943C11.3775 12.9513 11.4687 12.7235 11.3775 12.6209C11.4687 12.6209 11.5712 12.6437 11.5484 12.7576C11.765 12.6323 11.2065 12.5868 11.4003 12.4615C11.4003 12.4956 11.3889 12.507 11.4345 12.5184C11.3547 12.4501 11.4345 12.2792 11.5028 12.3248V12.3589C11.537 12.1653 11.5484 11.778 11.3091 11.7211C11.3433 11.7211 11.594 11.778 11.651 11.7894C11.4687 11.6983 11.2977 11.5844 11.1268 11.4819C11.1268 11.4477 11.1268 11.4135 11.1382 11.3793C11.3547 11.4021 11.6282 11.4135 11.6852 11.5388C11.7194 11.4933 11.765 11.4477 11.6966 11.3452C11.6624 11.368 11.3889 11.3793 11.3775 11.3338C11.6168 11.254 11.5142 11.2654 11.7308 11.1743C11.6738 11.2085 11.3661 11.0946 11.3889 11.0262C11.4345 11.049 11.708 11.0832 11.7308 11.1174L11.4573 10.8668C11.5028 10.9237 11.7194 10.9351 11.8219 10.9123C11.7536 10.9123 11.8675 10.7642 11.8447 10.7187L11.7536 10.7756C11.8561 10.6048 11.3775 10.4567 11.4573 10.2517C11.5142 10.2972 11.8219 10.4339 11.8903 10.3656C11.8105 10.32 11.6282 10.1833 11.4687 10.0352C11.5028 9.95551 11.5256 9.87577 11.5598 9.80743C11.7194 10.0011 11.8789 10.1947 11.9587 10.2972C12.0499 10.2517 12.0726 10.32 12.0954 10.2175C12.1866 10.2175 12.198 10.32 12.1866 10.3542L12.3234 10.1605C12.141 10.0922 12.2322 9.92133 12.0954 9.85299C12.1182 9.9669 12.1182 10.0694 12.1524 10.1719C11.9701 10.1036 11.7194 9.79603 11.8561 9.63656C11.9473 9.63656 12.141 9.83021 12.198 9.86438C12.1524 9.81882 12.1638 9.65935 12.2094 9.65935L12.2664 9.77325C12.3689 9.72769 12.141 9.51127 12.3576 9.51127C12.3917 9.48849 12.6197 9.56822 12.5399 9.48849C12.4145 9.43153 12.1638 9.28345 11.9701 9.12398C12.0043 9.07842 12.0271 9.03286 12.0613 8.99868L12.1182 9.05564V9.03286L12.0727 8.98729C12.1068 8.95312 12.141 8.90756 12.1638 8.87339C12.3006 8.96451 12.3689 9.19233 12.5057 9.2265C12.4715 9.19233 12.4487 9.11259 12.4373 9.08981C12.5057 9.08981 12.5513 9.20372 12.5969 9.11259C12.4601 8.9759 12.745 8.95312 12.5057 8.96451C12.5285 8.8506 12.6083 8.90756 12.6766 8.79365C12.5969 8.75948 12.5057 8.6114 12.4601 8.4861C12.4829 8.45193 12.5171 8.41776 12.5399 8.38358H12.5513C12.6994 8.22411 12.8362 8.17855 12.9501 8.01908C12.9957 8.03047 13.0983 7.98491 13.1439 8.06464C13.1325 8.01908 13.0983 7.96213 13.1211 7.90517C13.3262 7.90517 13.0641 8.03047 13.2806 8.07604C13.1895 8.00769 13.2464 7.84822 13.2351 7.73431C13.0755 7.66597 13.0983 7.88239 13.0983 7.9963C13.0299 7.95074 12.9843 7.871 12.9388 7.80266C13.0641 7.62041 13.1781 7.43815 13.292 7.2559C13.4288 7.15339 13.5427 6.83445 13.7251 6.69776C13.7023 6.65219 13.6909 6.60663 13.6567 6.58385C13.7821 6.33325 13.8846 6.07127 13.9758 5.80928C13.9986 5.80928 14.01 5.83206 14.0328 5.84345L14.01 5.72955C14.0442 5.74094 14.067 5.7865 14.1126 5.76372C14.0784 5.75233 14.0442 5.71815 14.0214 5.68398C14.0328 5.62703 14.0442 5.58147 14.067 5.52451C14.067 5.52451 14.067 5.52451 14.0784 5.52451C14.0898 5.46756 14.1126 5.422 14.1239 5.36504C14.1239 5.36504 14.124 5.36504 14.1353 5.36504C14.1353 5.35365 14.1353 5.34226 14.1353 5.33087C14.2949 4.60186 14.2949 3.83868 14.067 3.04133C14.1126 2.88186 14.1695 2.72239 14.2835 2.56292C14.1809 2.65405 14.1809 2.59709 14.1695 2.51736C14.1467 2.56292 14.0442 2.51736 13.9758 2.51736C14.0442 2.42623 14.1012 2.32372 14.1581 2.23259C13.9644 2.19842 14.1126 1.91365 13.9302 1.91365L13.9758 2.00478C13.8732 1.9706 13.7707 2.00478 13.6681 2.06173C13.6339 1.99339 13.5997 1.92504 13.5541 1.84531C13.5541 1.84531 13.5769 1.93643 13.5883 2.0959C13.4744 2.15286 13.3604 2.2212 13.2351 2.20981C13.4858 2.31233 12.8932 2.50597 13.2351 2.67683C13.1781 2.711 13.1439 2.64266 13.0869 2.65405C13.2009 2.69961 13.2237 2.76796 13.1667 2.85908H13.1439C13.1439 3.13246 13.0071 3.24637 12.8704 3.54253H13.0071C12.9729 3.61087 12.9274 3.62226 12.8932 3.64504C13.0755 3.77034 12.9501 3.4514 13.1553 3.5767C12.8704 3.61087 13.0185 4.0665 12.6994 4.03233C12.6652 4.13484 12.859 4.05511 12.8248 4.15762H12.7336L12.8248 4.21458C12.7792 4.27153 12.6766 4.27153 12.6083 4.24875C12.6197 4.23736 12.6083 4.1918 12.6083 4.18041C12.4829 4.23736 12.5627 4.431 12.5057 4.45378L12.5969 4.37405C12.5627 4.6816 12.312 4.95498 12.3348 5.2967H12.4031C12.4031 5.55868 12.255 5.43339 12.1752 5.67259C12.2094 5.72955 12.198 5.80928 12.1638 5.86623C12.1296 5.77511 11.9815 5.88902 11.9473 5.77511C11.9245 6.04849 11.9701 5.92319 12.0727 6.19657L11.9587 6.17378C12.0043 6.2763 12.0499 6.29908 12.0043 6.42438C11.9815 6.28769 11.8219 6.4016 11.7877 6.24213C11.4573 6.32186 11.7536 6.69776 11.4117 6.59524C11.5712 6.86862 11.6738 6.51551 11.6852 6.59524C11.7991 6.59524 11.7991 6.80027 11.7308 6.85723C11.6738 6.92557 11.3433 6.74332 11.2293 6.91418C11.2407 6.90279 11.2293 6.88001 11.2293 6.86862C11.1268 6.88001 11.2179 7.06226 11.0584 7.07365C11.161 7.23312 10.9672 7.18756 11.1382 7.33564L11.2179 7.13061C11.1951 7.26729 11.3433 7.5065 11.1268 7.59762C11.0926 7.56345 11.0812 7.48372 11.0812 7.42676C10.99 7.42676 11.0584 7.54067 10.9558 7.55206C10.7735 7.41537 11.0698 7.31286 11.0014 7.09643C10.8875 7.09643 10.99 7.40398 10.8305 7.19895C11.0356 7.44955 10.6595 7.3812 10.7621 7.64319L10.6481 7.56345C10.6481 7.56345 10.6823 7.67736 10.6481 7.71153L10.5342 7.54067C10.6026 7.73431 10.2949 7.71153 10.3062 7.871C10.4316 7.62041 10.4772 7.89378 10.6139 7.83683C10.6139 8.21272 10.2151 7.83683 10.1011 8.21272C10.1011 8.15577 10.2607 8.07604 10.2835 8.16716C10.2265 8.21272 10.1353 8.28107 10.0555 8.30385C9.99855 8.55445 10.1923 8.32663 10.2379 8.45193C10.0555 8.46332 10.2607 8.58862 10.2721 8.70253L10.1467 8.65696C9.96436 8.88478 10.3974 8.81643 10.2037 9.01008L10.0555 8.85061V8.98729L9.91878 8.91895C9.98716 9.08981 9.95297 9.12398 9.8732 9.24928C9.97576 9.24928 10.1125 9.32902 10.0897 9.44292C9.98716 9.49988 9.97576 9.36319 9.95297 9.54544C9.8732 9.48849 9.78203 9.42014 9.91878 9.37458C9.8732 9.3518 9.83901 9.31763 9.80482 9.29484C9.69086 9.36319 9.72505 9.51127 9.71365 9.57961C9.71365 9.55683 9.73645 9.53405 9.75924 9.52266C9.80482 9.61378 9.839 9.7163 9.89599 9.80743C9.839 9.8416 9.80482 9.80743 9.77063 9.76186C9.77063 9.81882 9.83901 9.86438 9.83901 9.93272C9.73645 9.89855 9.61108 9.88716 9.5769 9.77325L9.66807 10.0352C9.66807 10.0352 9.51991 10.1378 9.48572 10.1036C9.39456 10.2403 9.65667 10.4567 9.5769 10.6276C9.59969 10.6276 9.62248 10.6617 9.63388 10.6959C9.61109 10.8554 9.45154 11.0148 9.61108 11.1971L9.41735 11.311C9.47433 11.4591 9.66807 11.1515 9.74784 11.4021C9.81622 11.573 9.57689 11.4819 9.53131 11.5388C9.63388 11.6299 9.85041 11.7552 9.71365 11.9375C9.66807 11.8919 9.69086 11.8464 9.67947 11.7894L9.58829 11.9261C9.39456 11.7894 9.44014 11.6755 9.29199 11.8122C9.67946 11.7894 9.38316 12.302 9.77063 12.2678L9.81621 12.2792Z" fill="#DD1212"/>
<path d="M9.62213 10.6272H9.63315L9.6001 10.6161L9.62213 10.6272Z" fill="#DD1212"/>
<path d="M13.9422 6.19656L13.8963 6.20806L13.8618 6.27705L13.9422 6.19656Z" fill="#DD1212"/>
<path d="M13.577 7.39258C13.577 7.39258 13.5086 7.39258 13.4517 7.39258L13.5998 7.4837L13.5656 7.39258H13.577Z" fill="#DD1212"/>
<path d="M13.5087 7.81405C13.5087 7.81405 13.5086 7.65458 13.4175 7.72293C13.4517 7.7571 13.4403 7.95074 13.5087 7.81405Z" fill="#DD1212"/>
<path d="M11.9019 10.525C11.9474 10.6276 11.9019 10.6503 12.0956 10.6731C12.1982 10.5706 11.936 10.5934 12.05 10.5023C11.993 10.4567 11.9588 10.5706 11.9133 10.525H11.9019Z" fill="#DD1212"/>
<path d="M14.3749 1.90225L14.2837 1.98199L14.3293 2.01616L14.3749 1.90225Z" fill="#DD1212"/>
<path d="M14.09 1.83392L14.2609 1.76557C14.204 1.76557 14.147 1.7314 14.0786 1.70862C14.1014 1.75418 14.1242 1.79974 14.0786 1.82253L14.09 1.83392Z" fill="#DD1212"/>
<path d="M9.9074 13.9537C9.9074 13.9537 9.94159 13.8967 9.94159 13.8511L9.86182 13.9537H9.9074Z" fill="#DD1212"/>
<path d="M9.67969 12.6323L9.83923 12.5526L9.67969 12.5981V12.6323Z" fill="#DD1212"/>
<path d="M9.33789 11.4705C9.33789 11.4705 9.37208 11.573 9.37208 11.6185C9.33789 11.516 9.55442 11.4477 9.33789 11.4705Z" fill="#DD1212"/>
<path d="M22.1587 2.23259C22.1587 2.23259 22.3182 2.19842 22.284 2.20981C22.284 2.18703 22.1701 2.2212 22.1587 2.23259Z" fill="#DD1212"/>
<path d="M23.697 7.09644L23.583 7.142C23.583 7.142 23.64 7.11922 23.697 7.09644Z" fill="#DD1212"/>
<path d="M22.8181 5.66082C22.8181 5.66082 22.8181 5.66082 22.8181 5.64981C22.763 5.64981 22.774 5.64981 22.8181 5.66082Z" fill="#DD1212"/>
<path d="M26.0102 7.25588C25.862 7.18754 25.8848 7.16476 25.9304 7.13058H25.5771L26.0216 7.25588H26.0102Z" fill="#DD1212"/>
<path d="M22.0219 3.59947L22.0789 3.53113C22.1472 3.72477 22.0447 3.97536 22.227 4.15762L22.284 4.13483C22.4208 4.27152 22.227 4.26013 22.2954 4.40821H22.284C22.3524 4.43099 22.3866 4.46517 22.3866 4.51073C22.3068 4.47656 22.2498 4.61325 22.17 4.56768C22.3182 4.70437 22.284 4.63603 22.5347 4.69298L22.4322 4.73854C22.5347 4.74993 22.5803 4.73854 22.6259 4.81828C22.5233 4.77272 22.4777 4.9094 22.3524 4.86384C22.17 5.09166 22.6487 5.04609 22.3524 5.23973C22.6487 5.21695 22.4549 5.0347 22.5347 5.05748C22.6145 5.00053 22.7626 5.05748 22.7512 5.11444C22.7512 5.16 22.4321 5.34225 22.5119 5.49033C22.5119 5.47894 22.4891 5.49033 22.4777 5.46755C22.4322 5.55868 22.6145 5.5245 22.5461 5.6498C22.7171 5.59285 22.5917 5.74093 22.7854 5.62702L22.6715 5.53589C22.774 5.58146 23.0134 5.49033 22.9792 5.6498C22.9336 5.67258 22.8652 5.67258 22.8196 5.67258C22.7854 5.74093 22.8994 5.70675 22.8652 5.7751C22.6829 5.9004 22.7171 5.67258 22.5347 5.68397C22.4777 5.7751 22.7626 5.74093 22.5347 5.84344C22.8196 5.71815 22.6031 6.00291 22.8538 5.93457L22.7512 6.0143C22.7512 6.0143 22.8538 5.99152 22.8652 6.0143L22.6943 6.09404C22.8652 6.04848 22.7285 6.31046 22.8424 6.31046C22.7057 6.18517 22.9222 6.16238 22.945 6.04848C23.2071 6.04848 22.7968 6.3902 23.0134 6.49271C22.9792 6.49271 22.9792 6.35603 23.0589 6.34464C23.0703 6.3902 23.0817 6.46993 23.0589 6.53828C23.1843 6.60662 23.1273 6.41298 23.2299 6.3902C23.1615 6.54967 23.3211 6.37881 23.4008 6.36742L23.3211 6.48132C23.378 6.64079 23.5262 6.27629 23.5604 6.43576L23.4008 6.56106H23.4806L23.378 6.67497C23.5034 6.61801 23.5034 6.66358 23.5148 6.73192C23.5718 6.65218 23.6743 6.54967 23.7199 6.57245C23.6971 6.65218 23.6174 6.66358 23.6857 6.68636C23.6174 6.74331 23.5376 6.81166 23.5946 6.68636L23.492 6.77748C23.4578 6.86861 23.5376 6.84583 23.5604 6.85722C23.5604 6.85722 23.5604 6.83444 23.5604 6.82305C23.6174 6.80026 23.6857 6.76609 23.7541 6.74331C23.7313 6.78887 23.6857 6.81166 23.6515 6.83444C23.6743 6.83444 23.7313 6.80026 23.7541 6.81166C23.6629 6.88 23.5832 6.95973 23.5262 6.97113L23.6629 6.93695C23.6629 6.93695 23.5832 7.05086 23.549 7.06225C23.5148 7.1192 23.7655 6.99391 23.7199 7.08503C23.7427 7.08503 23.7655 7.07364 23.7769 7.07364C23.7769 7.1306 23.6629 7.21033 23.8225 7.21033L23.6401 7.30146C23.6971 7.32424 23.8681 7.17616 23.9592 7.23311C24.039 7.27868 23.7997 7.30146 23.7541 7.33563C23.8567 7.33563 24.0732 7.33563 23.925 7.44954C23.8795 7.42675 23.9137 7.40397 23.8909 7.39258C23.8567 7.41536 23.8225 7.42675 23.7883 7.46093C23.5946 7.42675 23.6515 7.40397 23.5034 7.46093C23.8795 7.3698 23.5832 7.66596 23.9592 7.60901L23.8909 7.66596C23.8909 7.66596 23.8681 7.66596 23.8681 7.64318C23.6971 7.7457 24.153 7.65457 24.1188 7.76848C24.096 7.80265 24.039 7.83682 23.9934 7.82543L24.096 7.89377C24.096 7.89377 24.0276 7.91656 24.0276 7.89377L24.0732 8.00768H24.0618C24.1188 8.00768 24.2213 8.04185 24.2669 8.05325C24.2099 8.08742 24.2214 8.05325 24.1758 8.05325L24.2783 8.1102C24.1872 8.14437 24.0846 8.1102 24.0846 8.06464C23.7085 8.16715 24.1872 8.1102 23.9706 8.25828L23.9137 8.20132C23.6971 8.25828 23.7769 8.29245 23.6515 8.37219C23.7199 8.3494 23.982 8.21272 24.0846 8.26967C24.0618 8.29245 24.0504 8.31523 24.1302 8.3494C23.9934 8.3494 24.0276 8.39497 24.039 8.42914H23.8567C23.8567 8.42914 24.0048 8.46331 24.0846 8.48609C24.0732 8.53166 23.925 8.54305 23.8111 8.55444C23.7769 8.62278 24.039 8.50887 24.0732 8.58861C24.0048 8.63417 24.0732 8.67973 24.1758 8.71391C24.1986 8.71391 24.2099 8.71391 24.2327 8.7253C24.3353 8.74808 24.4379 8.78225 24.5404 8.81642L24.9507 9.0898C24.9507 9.0898 24.9621 9.06702 24.9735 9.05563L25.2014 9.2151C25.1672 9.15814 25.0647 9.12397 25.0533 9.04424C24.8823 8.93033 25.3838 9.04424 25.2242 8.87338C25.2812 8.87338 25.3154 8.93033 25.3838 8.9645C25.304 8.79364 25.3382 8.81642 25.19 8.64556L25.3382 8.62278C25.2356 8.62278 25.1558 8.55444 25.0875 8.48609C25.1102 8.48609 25.133 8.4747 25.1558 8.46331C25.2128 8.49748 25.2584 8.54305 25.3154 8.55444C25.304 8.54305 25.2926 8.52026 25.2812 8.49748C25.304 8.52026 25.3268 8.53166 25.3496 8.53166C25.3724 8.53166 25.3382 8.50887 25.304 8.4747L25.4977 8.53166L25.4293 8.49748L25.6003 8.41775C25.6003 8.41775 25.4977 8.30384 25.4407 8.24689C25.4635 8.24689 25.4977 8.24689 25.4977 8.21272C25.5661 8.16715 25.2128 8.05324 25.3382 7.95073C25.4065 7.97351 25.4749 7.9849 25.5661 8.01907C25.3724 7.99629 25.6003 8.16715 25.5319 8.2355C25.5661 8.20132 25.6459 8.2355 25.6687 8.25828L25.5661 8.05325C25.7028 8.1102 25.6801 8.05324 25.7484 8.04185C25.4635 7.97351 25.6003 7.87099 25.5433 7.79126C25.6345 7.81404 25.7256 7.8596 25.6801 7.92795C25.908 7.90517 25.3951 7.72291 25.5889 7.70013C25.5889 7.72291 25.5661 7.72291 25.6117 7.7457C25.5433 7.67735 25.6345 7.59762 25.7028 7.64318V7.66596C25.7712 7.55205 25.794 7.29007 25.5547 7.23311C25.5889 7.23311 25.8396 7.30146 25.8852 7.31285C25.7028 7.22172 25.5319 7.15338 25.3496 7.08503C25.3496 7.06225 25.3496 7.03947 25.361 7.01669C25.5889 7.03947 25.851 7.05086 25.9194 7.1306C25.9536 7.10781 25.9991 7.07364 25.9194 6.99391C25.8852 7.01669 25.6117 7.01669 25.6003 6.99391C25.8396 6.93695 25.7256 6.95973 25.9308 6.86861C25.8852 6.90278 25.5661 6.84583 25.5775 6.80026C25.6231 6.80026 25.8966 6.80026 25.9308 6.83444C25.8282 6.78887 25.7256 6.74331 25.6117 6.69775C25.6687 6.73192 25.8852 6.69775 25.9763 6.67497C25.9194 6.68636 25.9763 6.56106 25.9422 6.52689L25.8738 6.58384C25.9194 6.43576 25.4179 6.46993 25.4179 6.35603C25.4863 6.35603 25.8282 6.34464 25.851 6.2649C25.7598 6.2649 25.5319 6.2649 25.3154 6.25351C25.3154 6.20795 25.304 6.16238 25.2926 6.12821C25.5091 6.12821 25.7484 6.1396 25.8738 6.18517C25.9308 6.11682 25.9763 6.15099 25.9422 6.05987C26.0219 6.00291 26.0903 6.08265 26.1017 6.10543V5.86623C25.9194 5.92318 25.8738 5.7751 25.7142 5.84344C25.8054 5.87762 25.8852 5.93457 25.965 5.99152C25.7826 6.04848 25.4179 6.0143 25.4065 5.9004C25.4635 5.84344 25.737 5.80927 25.794 5.78649C25.7256 5.78649 25.6345 5.71815 25.6687 5.68397H25.7826C25.8168 5.60424 25.5091 5.68397 25.6459 5.53589C25.6459 5.50172 25.8282 5.34225 25.7256 5.38781C25.6231 5.47894 25.3496 5.60424 25.1216 5.70676C25.1216 5.68397 25.0988 5.6498 25.0875 5.62702L25.1558 5.59285L25.0875 5.61563C25.0875 5.59285 25.0647 5.57007 25.0533 5.54728C25.19 5.45616 25.3951 5.43338 25.4977 5.34225C25.4521 5.36503 25.3837 5.36503 25.361 5.36503C25.3837 5.31947 25.5091 5.29669 25.4521 5.25113C25.2812 5.34225 25.3951 5.11444 25.2926 5.30808C25.2128 5.27391 25.2926 5.22834 25.2356 5.16C25.1786 5.21695 25.0191 5.2853 24.9051 5.31947C24.8937 5.29669 24.8823 5.27391 24.8595 5.26252C24.8595 5.26252 24.8709 5.26252 24.8709 5.25113C24.8025 5.14861 24.8139 5.0347 24.7114 4.96636C24.7342 4.92079 24.7114 4.84106 24.7798 4.78411C24.7456 4.80689 24.7 4.85245 24.6544 4.82967C24.6658 4.64742 24.7456 4.85245 24.8025 4.64742C24.7342 4.73854 24.6316 4.72715 24.5518 4.76132C24.4835 4.92079 24.643 4.84106 24.7342 4.81828C24.6886 4.88662 24.6316 4.95497 24.5746 5.01192C24.4721 4.94358 24.3581 4.89801 24.2555 4.84106C24.21 4.74993 24.0276 4.69298 24.0276 4.53351C23.9934 4.5449 23.9592 4.55629 23.925 4.57907C23.8795 4.53351 23.8453 4.48795 23.7997 4.4196C23.7997 4.39682 23.7997 4.37404 23.7997 4.35126L23.7769 4.38543V4.43099C23.7541 4.37404 23.7085 4.28291 23.6743 4.19179C23.6857 4.19179 23.7085 4.19179 23.7199 4.16901L23.6515 4.14623C23.6515 4.14623 23.6515 4.14623 23.6515 4.13483C23.6857 4.13483 23.7199 4.13483 23.7427 4.10066C23.7085 4.11205 23.6743 4.12344 23.6401 4.12344C23.6287 4.08927 23.6174 4.06649 23.5946 4.03232C23.5946 4.00954 23.5718 3.99815 23.5718 3.97536V3.95258C23.5604 3.95258 23.5604 3.95258 23.549 3.94119C23.4122 3.55391 23.2869 3.21219 23.1957 2.91603C23.1957 2.77934 23.2527 2.65404 23.4806 2.55152C23.378 2.5743 23.378 2.55152 23.378 2.51735C23.3552 2.52874 23.2527 2.49457 23.1843 2.48318L23.4008 2.39205C23.2185 2.32371 23.4236 2.25536 23.2527 2.19841L23.2755 2.24397C23.1843 2.19841 23.0817 2.18702 22.9678 2.17563C22.945 2.0845 22.9222 2.03894 22.9222 2.03894C22.9222 2.03894 22.9108 2.09589 22.888 2.17563C22.774 2.17563 22.6487 2.17563 22.5233 2.14146C22.7398 2.25536 22.1359 2.25536 22.4435 2.43762C22.3866 2.44901 22.3638 2.40344 22.2954 2.40344C22.4094 2.4604 22.4208 2.49457 22.3638 2.55152H22.341C22.341 2.72238 22.2156 2.79073 22.1131 2.99576H22.2498C22.2498 2.99576 22.1814 3.04132 22.1472 3.06411C22.341 3.13245 22.17 2.93881 22.3866 3.00715C22.1017 3.04132 22.3524 3.3147 22.0333 3.33748C22.0333 3.40583 22.1928 3.33748 22.1814 3.39444H22.1017L22.2042 3.42861C22.1814 3.47417 22.0789 3.49695 22.0105 3.48556C22.0105 3.48556 21.9877 3.45139 21.9877 3.44C21.8851 3.49695 22.0105 3.61086 21.9877 3.63364L22.0219 3.59947Z" fill="#DD1212"/>
<path d="M23.7191 7.08502L23.6968 7.0962L23.7191 7.08502Z" fill="#DD1212"/>
<path d="M24.3919 4.60184C24.3919 4.60184 24.3805 4.6588 24.3691 4.70436L24.4489 4.54489L24.3919 4.59045V4.60184Z" fill="#DD1212"/>
<path d="M24.6427 4.53351C24.6427 4.53351 24.5402 4.57907 24.5744 4.64742C24.5972 4.60185 24.7339 4.56768 24.6427 4.53351Z" fill="#DD1212"/>
<path d="M26.0443 6.28769C25.9759 6.2763 25.9873 6.37882 25.9189 6.35604C25.9987 6.41299 25.9645 6.44716 26.1469 6.4016C26.2038 6.28769 25.9645 6.4016 26.0443 6.28769Z" fill="#DD1212"/>
<path d="M23.5942 2.30093L23.6626 2.26675L23.5601 2.27814L23.5942 2.30093Z" fill="#DD1212"/>
<path d="M23.5945 2.19841L23.4349 2.13007C23.4349 2.13007 23.4463 2.16424 23.4121 2.15285L23.5945 2.18702V2.19841Z" fill="#DD1212"/>
<path d="M23.7539 8.40636H23.7995C23.7995 8.40636 23.8451 8.38358 23.8565 8.37219L23.7539 8.40636Z" fill="#DD1212"/>
<path d="M23.8224 7.79125L23.811 7.80264L23.982 7.75708L23.8224 7.79125Z" fill="#DD1212"/>
<path d="M23.5259 7.37002C23.5259 7.37002 23.5603 7.39301 23.5603 7.40451C23.5259 7.38152 23.7327 7.31253 23.5259 7.37002Z" fill="#DD1212"/>
<path d="M27.1843 8.32661C27.1843 8.32661 27.0931 8.38356 27.0703 8.39496C27.1387 8.42913 27.2071 8.30383 27.1843 8.32661Z" fill="#DD1212"/>
<path d="M27.2409 21.2779L27.0928 21.2551C27.1498 21.369 27.1839 21.2893 27.2409 21.2779Z" fill="#DD1212"/>
<path d="M26.6028 16.562C26.5462 16.4824 26.5575 16.5165 26.6028 16.562V16.562Z" fill="#DD1212"/>
<path d="M30.4673 21.7449H30.4551V21.7572L30.4673 21.7449Z" fill="#DD1212"/>
<path d="M30.6256 21.9613C30.4433 21.9044 30.4433 21.836 30.4547 21.7449L30.147 21.9385L30.637 21.9613H30.6256Z" fill="#DD1212"/>
<path d="M30.7398 24.0231C30.4435 24.0686 30.5802 23.7269 30.5004 23.5674C30.5916 23.5674 30.7056 23.613 30.66 23.7952C30.8993 23.6016 30.3295 23.5105 30.5232 23.3168C30.5232 23.3624 30.5118 23.3852 30.5574 23.408C30.4777 23.3054 30.5346 23.0321 30.6144 23.089V23.1346C30.6486 22.8156 30.489 22.1778 30.2269 22.2119C30.2611 22.2005 30.5232 22.1778 30.5688 22.1778C30.3523 22.098 30.1358 22.0525 29.9306 22.0069C29.9078 21.9499 29.8851 21.893 29.8737 21.836C30.0788 21.7335 30.3067 21.6082 30.4435 21.7449C30.4435 21.6652 30.4435 21.5627 30.3181 21.4487C30.3181 21.5057 30.0788 21.6766 30.0446 21.6196C30.1927 21.3576 30.113 21.4601 30.2041 21.1754C30.2041 21.2551 29.8623 21.3234 29.8281 21.2209C29.8851 21.2209 30.113 21.0729 30.1586 21.0956L29.7483 20.9817C29.8281 21.0159 29.999 20.8792 30.056 20.7767C30.0104 20.8336 29.9534 20.5603 29.8964 20.5147V20.6514C29.7939 20.3552 29.338 20.5831 29.2241 20.3097C29.3038 20.3097 29.6343 20.2072 29.6001 20.0591C29.509 20.0591 29.2697 20.0819 29.0303 20.0591C28.9848 19.9566 28.9392 19.854 28.8936 19.7515C29.1443 19.8085 29.4178 19.8654 29.566 19.911C29.5888 19.7857 29.6571 19.8313 29.5774 19.6946C29.6343 19.6034 29.7369 19.7174 29.7597 19.7629L29.6685 19.4098C29.4976 19.5009 29.395 19.2276 29.2469 19.2959C29.3608 19.3984 29.4634 19.5009 29.5774 19.5921C29.4064 19.6832 28.9848 19.5921 28.9164 19.3073C28.962 19.2162 29.2583 19.2389 29.3152 19.2162C29.2355 19.2162 29.1101 19.0225 29.1557 18.9884L29.2811 19.0567C29.3038 18.8972 28.962 18.9086 29.0873 18.6808C29.0873 18.6125 29.2811 18.4416 29.1785 18.4644C29.0645 18.5555 28.791 18.6466 28.5403 18.715C28.5175 18.6466 28.5061 18.5783 28.4947 18.4985H28.5745L28.5631 18.453H28.4947C28.4947 18.453 28.4605 18.3277 28.4491 18.2593C28.6087 18.2024 28.8252 18.3505 28.9392 18.248C28.8822 18.248 28.8138 18.2138 28.791 18.191C28.8252 18.1227 28.9506 18.191 28.905 18.0543C28.7112 18.0543 28.8822 17.7695 28.734 18.0201C28.6543 17.8948 28.7454 17.8721 28.7226 17.7126C28.6429 17.7582 28.4833 17.6898 28.358 17.5987C28.358 17.5417 28.358 17.4734 28.3466 17.4164C28.3466 17.4164 28.358 17.4164 28.3694 17.4164C28.358 17.1203 28.4605 16.9608 28.4605 16.676C28.5061 16.6533 28.5631 16.5166 28.6429 16.5735C28.6087 16.5393 28.5403 16.4938 28.5403 16.414C28.7112 16.2546 28.5517 16.6077 28.7682 16.4824C28.6543 16.471 28.6201 16.2546 28.5631 16.1293C28.3922 16.1521 28.5175 16.414 28.5859 16.528C28.5061 16.528 28.415 16.4938 28.3466 16.4368C28.3466 16.1179 28.3808 15.8103 28.4036 15.5142C28.4833 15.3091 28.4719 14.8307 28.6087 14.5687C28.5745 14.5232 28.5403 14.4776 28.5061 14.4548C28.5517 14.0562 28.6087 13.6689 28.6543 13.293C28.6771 13.293 28.6885 13.3158 28.7113 13.3158L28.6657 13.1563C28.6657 13.1563 28.6657 13.1563 28.6657 13.1449C28.6999 13.1449 28.734 13.2019 28.7682 13.1677C28.7227 13.1677 28.6999 13.1221 28.6771 13.088C28.6771 13.0082 28.6999 12.9399 28.6999 12.8601V12.8487C28.6999 12.7804 28.7226 12.7007 28.7226 12.6323C28.7226 12.6323 28.7227 12.6323 28.734 12.6323C28.734 12.6209 28.734 12.6095 28.734 12.5868C28.8936 11.2313 28.9392 10.058 28.4947 9.04424C28.5289 8.95312 28.5403 8.86199 28.5859 8.77087C28.4947 8.91895 28.4833 8.81643 28.4719 8.71391C28.4605 8.75948 28.4036 8.74809 28.3466 8.73669C28.3352 8.71391 28.3238 8.67974 28.301 8.65696C28.3466 8.54305 28.3808 8.41775 28.4149 8.29246C28.2326 8.25828 28.2668 7.81405 28.0617 7.84822L28.1528 7.97352C28.0389 7.93934 27.9591 8.01908 27.8793 8.1102C27.811 8.03047 27.7426 7.95073 27.6514 7.871C27.6514 7.871 27.7312 7.96212 27.811 8.17855C27.7198 8.28106 27.6286 8.38358 27.5033 8.39497C27.7768 8.49749 27.2184 8.79365 27.5602 9.01007C27.5033 9.06703 27.4691 8.96451 27.4121 8.98729C27.5261 9.04424 27.5488 9.12398 27.4919 9.26067L27.4691 9.23789C27.4577 9.63656 27.3095 9.79603 27.1158 10.2175H27.2525C27.207 10.3086 27.1614 10.32 27.1158 10.3542C27.2753 10.525 27.207 10.0922 27.3893 10.2517C27.093 10.2858 27.1728 10.9579 26.8423 10.9921C26.7967 11.1629 27.0018 10.9921 26.9676 11.1515L26.8765 11.1743L26.9676 11.2427C26.9221 11.3452 26.8081 11.3793 26.7397 11.368C26.7511 11.3452 26.7397 11.2882 26.7397 11.254C26.603 11.3793 26.6827 11.6641 26.6372 11.7097L26.7169 11.5616C26.7055 12.04 26.5004 12.5754 26.6144 13.0424L26.6827 13.0196C26.7625 13.3727 26.5802 13.2816 26.603 13.6575H26.5916C26.6486 13.7258 26.6713 13.8284 26.6486 13.9195C26.5802 13.817 26.489 14.0789 26.4206 13.9536C26.5232 14.3295 26.5118 14.1473 26.7283 14.3979L26.6144 14.4434C26.7055 14.5346 26.7511 14.5346 26.7739 14.7282C26.6941 14.5687 26.603 14.8421 26.5004 14.6599C26.2611 15.0472 26.7169 15.2408 26.375 15.4117C26.6599 15.5939 26.546 15.0813 26.603 15.1838C26.7055 15.1041 26.8195 15.3319 26.7853 15.4572C26.7853 15.5825 26.4092 15.6623 26.4206 15.9812C26.4206 15.947 26.3978 15.947 26.3978 15.9129C26.3181 16.0268 26.5004 16.1407 26.3864 16.2887C26.5688 16.3685 26.3864 16.4824 26.6144 16.4938L26.546 16.209C26.6144 16.3685 26.8765 16.5052 26.7625 16.7785C26.7169 16.7558 26.6486 16.6874 26.6144 16.6305C26.546 16.7102 26.6599 16.7785 26.603 16.8583C26.375 16.8583 26.5346 16.5166 26.3637 16.3457C26.2725 16.4368 26.5346 16.676 26.2953 16.5963C26.603 16.7102 26.2725 16.9152 26.5232 17.1089H26.3864C26.3864 17.1089 26.4776 17.2 26.4776 17.2684L26.2953 17.1658C26.4548 17.3253 26.1813 17.5076 26.2953 17.6784C26.2497 17.3253 26.4434 17.5873 26.5346 17.4278C26.7625 17.8379 26.2155 17.7126 26.3295 18.191C26.3067 18.1227 26.375 17.929 26.4548 18.0315C26.4434 18.1227 26.3978 18.2593 26.3409 18.3277C26.4206 18.6466 26.4662 18.2593 26.5802 18.3846C26.432 18.5213 26.6713 18.5327 26.7511 18.658L26.6144 18.6808C26.5916 19.0567 26.9107 18.7264 26.8765 19.0681L26.6599 18.9656L26.7511 19.125H26.5916C26.7511 19.2845 26.7283 19.3529 26.7283 19.5351C26.8081 19.4668 26.9676 19.5009 27.0246 19.649C26.979 19.7743 26.8765 19.6262 26.9676 19.8427C26.8651 19.8199 26.7511 19.7857 26.8423 19.6604C26.7967 19.6604 26.7397 19.6376 26.6941 19.6376C26.6372 19.7857 26.7625 19.9452 26.7853 20.0249C26.7853 19.9907 26.7853 19.9452 26.7853 19.9224L27.0702 20.1958C27.036 20.2641 26.9904 20.2413 26.9335 20.2072C26.9676 20.2641 27.0474 20.2983 27.093 20.3894C26.979 20.4008 26.8765 20.4464 26.7739 20.3325L27.0132 20.6058C27.0132 20.6058 26.9563 20.8223 26.8993 20.7995C26.8993 21.0045 27.2753 21.107 27.2867 21.3576C27.3095 21.3576 27.3437 21.369 27.3779 21.4146C27.4463 21.6196 27.4007 21.8588 27.6514 22.0069L27.5375 22.2233C27.6628 22.3828 27.6742 21.9385 27.8907 22.2005C28.0503 22.3828 27.7768 22.3486 27.7654 22.4511C27.9021 22.5081 28.1756 22.5992 28.1187 22.8498C28.0503 22.8042 28.0617 22.7473 28.0161 22.6903L27.9819 22.884C27.7312 22.7929 27.7312 22.6448 27.6514 22.8498C28.0161 22.7017 27.9363 23.3624 28.301 23.2257L28.2668 23.351C28.2668 23.351 28.2326 23.3282 28.2326 23.3054C28.13 23.5446 28.5403 23.3282 28.5859 23.5788C28.5859 23.6699 28.5517 23.7383 28.4833 23.7041L28.6315 23.8408C28.6315 23.8408 28.5745 23.8978 28.5631 23.8408L28.6543 24.08H28.6429C28.7113 24.1028 28.8138 24.1711 28.8594 24.2053C28.8138 24.2736 28.8138 24.1825 28.7682 24.2053C28.8024 24.2509 28.848 24.2964 28.8822 24.342C28.7796 24.3989 28.6885 24.2964 28.6885 24.2053C28.3238 24.3648 28.8024 24.3192 28.5745 24.5698C28.5745 24.5356 28.5403 24.4901 28.5289 24.4559C28.3124 24.5242 28.3808 24.604 28.2326 24.6837C28.301 24.6837 28.6087 24.4901 28.6885 24.6268C28.6543 24.6609 28.6315 24.7065 28.6999 24.7976C28.5631 24.7748 28.5745 24.8432 28.5631 24.9457L28.3922 24.8887C28.4263 24.9913 28.5061 25.014 28.5631 25.1052C28.5061 25.2077 28.358 25.1849 28.244 25.1507C28.1414 25.3102 28.5175 25.1166 28.4377 25.3444C28.301 25.4697 28.3124 25.595 28.2896 25.8456C28.1756 25.9253 28.2098 25.7658 28.1414 25.7772L28.2098 25.9481C28.2098 25.9481 28.1984 25.9481 28.187 25.9481H28.1528L26.8309 25.4583L28.5859 26.8252L28.6315 26.9163H28.6429H28.6771H28.6999C28.6999 26.9163 28.7227 26.8821 28.734 26.8707C28.7454 26.848 28.7568 26.8252 28.7568 26.8024C28.7568 26.7568 28.791 26.7113 28.905 26.6657C28.905 26.5632 29.0303 26.6087 29.1899 26.6201C29.3494 26.6315 29.5432 26.5974 29.5888 26.4151C29.6799 26.4151 29.6343 26.529 29.6913 26.5632C29.9078 26.1987 29.8851 26.2556 29.9078 25.9139C29.9876 25.8797 30.056 25.8342 30.1358 25.7886C29.9192 25.857 29.9192 25.595 29.8623 25.3899H29.9078C29.9078 25.3899 29.9078 25.4241 29.9078 25.4469C29.9192 25.4241 29.9078 25.4241 29.9306 25.4127C29.999 25.5152 30.0674 25.6064 30.1586 25.6405C30.1586 25.6178 30.1586 25.5722 30.1586 25.5266C30.1814 25.5608 30.1927 25.5836 30.2155 25.5836C30.2383 25.5836 30.2155 25.538 30.1928 25.4697L30.4093 25.4925L30.3409 25.4469L30.5916 25.1166C30.4777 24.7862 30.2269 24.5129 30.1928 24.1256C30.3295 24.2395 30.4321 24.1711 30.603 24.2053C30.4093 24.285 30.6372 24.5356 30.5574 24.7407C30.603 24.6382 30.6714 24.6723 30.7056 24.7065L30.603 24.2964C30.7512 24.3192 30.717 24.2281 30.7853 24.137L30.7398 24.0231Z" fill="#DD1212"/>
<path d="M30.1932 25.5267C30.1932 25.5267 30.1358 25.5267 30.1128 25.5152C30.1128 25.5497 30.1473 25.5612 30.1932 25.5267Z" fill="#DD1212"/>
<path d="M27.2636 21.2777V21.2665L27.2412 21.2777H27.2636Z" fill="#DD1212"/>
<path d="M28.6087 13.76L28.5745 13.8056L28.5518 13.9081L28.6087 13.76Z" fill="#DD1212"/>
<path d="M28.6428 15.4686C28.6428 15.4686 28.5744 15.5142 28.5288 15.537L28.6997 15.5598L28.6428 15.48V15.4686Z" fill="#DD1212"/>
<path d="M28.7797 16.004C28.7797 16.004 28.6999 15.8103 28.6543 15.9698C28.6999 15.9926 28.7797 16.2204 28.7797 16.004Z" fill="#DD1212"/>
<path d="M29.7253 20.2072C29.8392 20.2755 29.8392 20.3552 29.976 20.2186C29.9532 20.0135 29.7936 20.2527 29.7936 20.0591C29.7139 20.0591 29.7936 20.2186 29.7139 20.2072H29.7253Z" fill="#DD1212"/>
<path d="M28.4377 7.67734C28.4377 7.67734 28.4149 7.77985 28.3921 7.83681L28.4491 7.88237C28.4491 7.81403 28.4491 7.75707 28.4377 7.67734Z" fill="#DD1212"/>
<path d="M28.2325 7.5065C28.1527 7.49511 28.0957 7.5065 27.9932 7.46094C28.0729 7.54067 28.1185 7.58624 28.1071 7.64319C28.1527 7.59763 28.1983 7.55206 28.2325 7.5065Z" fill="#DD1212"/>
<path d="M28.2324 24.6837H28.278C28.278 24.6837 28.335 24.6837 28.3578 24.6495L28.2438 24.6837H28.2324Z" fill="#DD1212"/>
<path d="M28.2441 23.5218V23.5446L28.3809 23.4421L28.2441 23.5218Z" fill="#DD1212"/>
<path d="M27.4692 22.36C27.4692 22.36 27.549 22.4625 27.5718 22.5195C27.492 22.417 27.6516 22.2575 27.4692 22.36Z" fill="#DD1212"/>
<path d="M1.57718 24.0914C1.57718 24.0914 1.48601 24.0117 1.47461 24.0003C1.47461 24.1028 1.61137 24.1028 1.57718 24.0914Z" fill="#DD1212"/>
<path d="M0.289092 32.7598L0.152344 32.737C0.175136 32.8167 0.220715 32.7711 0.289092 32.7598Z" fill="#DD1212"/>
<path d="M0.493771 29.7061C0.493771 29.7061 0.493774 29.7061 0.50479 29.7061C0.460725 29.6621 0.460723 29.6841 0.493771 29.7061Z" fill="#DD1212"/>
<path d="M2.43265 33.4774H2.42041V33.4897L2.43265 33.4774Z" fill="#DD1212"/>
<path d="M2.54586 33.6026C2.38631 33.5799 2.39771 33.5343 2.4205 33.4887L2.07861 33.6026H2.54586Z" fill="#DD1212"/>
<path d="M2.8306 35.7783L2.89897 35.6302C2.85339 35.6986 2.78501 35.7099 2.70524 35.7099C2.70524 35.6302 2.67105 35.6188 2.64826 35.6074C2.70524 35.6074 2.77362 35.6074 2.8192 35.5846C2.79641 35.5846 2.77362 35.5733 2.75083 35.5505C2.78501 35.5505 2.80781 35.5505 2.8306 35.5391C2.84199 35.5391 2.80781 35.5277 2.75083 35.5163L2.93316 35.4138L2.85339 35.4366L2.91037 35.1974C2.77362 35.1518 2.62547 35.129 2.47732 35.0721C2.5343 35.0151 2.56849 34.9582 2.60268 34.9126C2.65966 34.9468 2.72803 34.9923 2.72803 35.0607C2.72803 34.9923 2.80781 34.9809 2.842 34.9923L2.65965 34.867C2.65965 34.867 2.69384 34.867 2.70524 34.8898C2.72803 34.8329 2.72803 34.7987 2.70524 34.7987C2.72803 34.7759 2.71664 34.7417 2.75083 34.7076C2.70524 34.7303 2.67105 34.7303 2.63687 34.7303C2.63687 34.7189 2.64826 34.7076 2.63687 34.6848C2.67105 34.6392 2.50011 34.605 2.40894 34.5367C2.50011 34.5139 2.59128 34.5025 2.60268 34.6164C2.75083 34.4684 2.37475 34.5367 2.36335 34.4456C2.36335 34.4342 2.36336 34.4228 2.38615 34.4C2.38615 34.4228 2.38615 34.4456 2.43174 34.4456C2.32917 34.4114 2.36335 34.2405 2.45452 34.2633V34.2861C2.45452 34.1152 2.34057 33.7735 2.10125 33.7963C2.13543 33.7963 2.38614 33.7621 2.44313 33.7621L1.85053 33.6596C1.85053 33.6254 1.83914 33.5913 1.82774 33.5685C2.04427 33.5115 2.29498 33.4432 2.39755 33.5229C2.42034 33.4774 2.44313 33.4204 2.35196 33.3521C2.32917 33.3862 2.06705 33.4774 2.04426 33.4432C2.24939 33.2951 2.15822 33.3521 2.32917 33.1812C2.29498 33.2268 1.96449 33.2382 1.96449 33.1812C2.01007 33.1812 2.28359 33.1242 2.31778 33.147L1.97589 33.0331C2.03287 33.0673 2.24939 32.999 2.32917 32.9534C2.27219 32.9762 2.31777 32.8167 2.28358 32.7711L2.21521 32.8509C2.238 32.6572 1.74797 32.7256 1.73657 32.5319C1.80495 32.5433 2.14683 32.5319 2.18102 32.4408C2.08985 32.4294 1.87332 32.3952 1.6568 32.3383C1.6568 32.2699 1.6454 32.2016 1.634 32.1333C1.85053 32.213 2.08985 32.2927 2.20381 32.3497C2.27218 32.2699 2.31777 32.3155 2.29498 32.213C2.37475 32.1674 2.43173 32.2586 2.44313 32.2813L2.47732 32.0421C2.28359 32.0649 2.27219 31.8713 2.11264 31.894L2.32917 32.1446C2.14683 32.1674 1.77075 32.0307 1.79355 31.8599C1.87332 31.8143 2.13543 31.8713 2.20381 31.8599C2.13543 31.8371 2.06706 31.7004 2.11264 31.689L2.21521 31.7574C2.28358 31.6662 1.9531 31.6093 2.13543 31.4954C2.13543 31.4498 2.37475 31.3815 2.26079 31.3701C2.12404 31.4042 1.83913 31.427 1.58842 31.427C1.58842 31.3815 1.58842 31.3359 1.58842 31.2903H1.6682V31.2676H1.59981C1.59981 31.2676 1.59981 31.1764 1.59981 31.1309C1.75936 31.1195 1.95309 31.2334 2.08985 31.1878C2.03287 31.1878 1.97589 31.1423 1.9531 31.1309C1.99868 31.0853 2.11264 31.1537 2.08985 31.0625C1.89611 31.0397 2.11264 30.8803 1.9303 31.017C1.87332 30.9258 1.97589 30.9258 1.96449 30.8233C1.87332 30.8461 1.72517 30.7778 1.61121 30.7094C1.61121 30.6752 1.61121 30.6297 1.61121 30.5955C1.61121 30.5955 1.6226 30.5955 1.634 30.5955C1.66819 30.4133 1.75936 30.3221 1.79355 30.1513C1.83913 30.1513 1.90751 30.0715 1.98729 30.1171C1.9531 30.0829 1.89612 30.0601 1.89612 30.0032C2.07845 29.9348 1.89612 30.1171 2.11264 30.0715C1.99868 30.0487 1.97588 29.9121 1.9189 29.8323C1.74796 29.8323 1.86192 30.0032 1.9189 30.0829C1.83913 30.0715 1.75936 30.026 1.67959 29.9804C1.70238 29.8665 1.71378 29.7412 1.73657 29.6273C1.74797 29.5589 1.75936 29.4906 1.77076 29.4223C1.86193 29.3084 1.86192 29.0008 1.99868 28.8299C1.96449 28.7958 1.9303 28.7616 1.89612 28.7502C1.9303 28.5566 1.9531 28.3857 1.97589 28.2148C1.97589 28.1465 1.98728 28.0895 1.99868 28.0212C2.02147 28.0212 2.04427 28.0326 2.06706 28.0326L2.01008 27.9301C2.04426 27.9301 2.08985 27.9756 2.12403 27.9529C2.07845 27.9529 2.04427 27.9187 2.02147 27.8959C2.02147 27.8503 2.03287 27.8048 2.03287 27.7592C2.03287 27.7592 2.03287 27.7592 2.04426 27.7478C2.04426 27.7023 2.05566 27.6567 2.05566 27.6111C2.05566 27.6111 2.05566 27.6111 2.06706 27.6111V27.5884C2.12404 26.9277 2.12404 26.3923 2.11264 25.9481C2.18102 25.6747 2.26079 25.4013 2.59128 25.2305C2.47732 25.2646 2.48871 25.2191 2.50011 25.1621C2.46592 25.1849 2.38615 25.1166 2.31778 25.0938L2.56848 24.9571C2.40894 24.8432 2.64826 24.7407 2.48871 24.6495V24.7293C2.40894 24.6382 2.28358 24.6268 2.15822 24.6154C2.16962 24.547 2.18102 24.4673 2.21521 24.4103C2.21521 24.4103 2.18102 24.4901 2.12403 24.6154C1.99868 24.6154 1.87332 24.604 1.75936 24.547C1.9417 24.7407 1.31491 24.6837 1.57703 24.9799C1.50865 25.0027 1.50865 24.9229 1.44027 24.9115C1.53144 24.9913 1.54284 25.0596 1.45167 25.128L1.42887 25.1052C1.36049 25.3785 1.21235 25.4583 1.04141 25.7431L1.17816 25.7658C1.14397 25.8228 1.09839 25.8228 1.0528 25.8456C1.22375 25.9823 1.12118 25.6633 1.31491 25.8C1.29212 25.8 1.29212 25.8114 1.28072 25.8228C1.28072 25.8228 1.26933 25.8228 1.25794 25.8342C1.0642 25.9139 1.14397 26.267 0.859064 26.2329C0.824875 26.3354 1.01861 26.2442 0.984422 26.3468H0.893259L0.99582 26.4037C0.961632 26.4607 0.847668 26.4721 0.779291 26.4493C0.790687 26.4379 0.779291 26.3923 0.779291 26.3809C0.653934 26.4379 0.745103 26.6429 0.699518 26.6657L0.779291 26.5746C0.779291 26.8707 0.585563 27.2011 0.688129 27.5086H0.756503C0.824879 27.7364 0.653933 27.6567 0.653933 27.8959H0.642543C0.642543 27.8959 0.710915 28.0098 0.699518 28.0668C0.631142 27.9984 0.539976 28.1465 0.471599 28.0668C0.551372 28.3174 0.551372 28.2035 0.756503 28.3857H0.642543C0.722316 28.4654 0.779291 28.4768 0.779291 28.6021C0.710914 28.4882 0.608351 28.6477 0.505786 28.5224C0.243675 28.7388 0.688123 28.9211 0.334843 28.9894C0.60835 29.1375 0.528576 28.7958 0.57416 28.8755C0.676726 28.8413 0.77929 29.0008 0.733705 29.0691C0.722309 29.1489 0.346239 29.1489 0.334843 29.3539C0.334843 29.3311 0.312057 29.3311 0.323453 29.3084C0.24368 29.3767 0.414621 29.4678 0.277867 29.5476C0.448809 29.6159 0.255075 29.6615 0.482998 29.6956L0.448802 29.5134C0.494387 29.6273 0.74511 29.7412 0.608356 29.9007C0.562771 29.8893 0.505788 29.8323 0.471599 29.7982C0.403222 29.8437 0.505789 29.9007 0.437412 29.9462C0.20949 29.9121 0.403226 29.7184 0.24368 29.5931C0.141115 29.6387 0.380432 29.8209 0.152509 29.7412C0.460205 29.8437 0.10692 29.9348 0.334843 30.0943H0.198095C0.198095 30.0943 0.277867 30.1513 0.277867 30.1854L0.106923 30.1057C0.255073 30.2196 -0.0412235 30.3107 0.0385494 30.4246C0.0385494 30.1968 0.19809 30.3791 0.300656 30.288C0.471598 30.5613 -0.0526269 30.436 0.00435372 30.7664C-0.0184385 30.7208 0.0841322 30.6069 0.152509 30.6752C0.129717 30.7322 0.0727305 30.8119 0.00435372 30.8575C0.0385421 31.0739 0.141113 30.8233 0.232282 30.9144C0.0727357 30.9942 0.300659 31.017 0.35764 31.0967H0.220883C0.152506 31.3473 0.517183 31.1537 0.426014 31.3701L0.232282 31.2903L0.289257 31.3929H0.129712C0.255069 31.4954 0.232283 31.5295 0.198095 31.6548C0.289264 31.6207 0.448807 31.6435 0.471599 31.746C0.403222 31.8257 0.334844 31.7232 0.380428 31.8713C0.289259 31.8485 0.175296 31.8257 0.289257 31.746C0.243672 31.746 0.198094 31.7232 0.152509 31.7232C0.0727361 31.8143 0.152503 31.9168 0.163899 31.9738C0.163899 31.951 0.163904 31.9282 0.186696 31.9054L0.403225 32.0877C0.403225 32.0877 0.312053 32.1105 0.266469 32.0877C0.289261 32.1333 0.357636 32.1446 0.380428 32.213C0.266467 32.213 0.152503 32.2358 0.0841263 32.156C0.129711 32.2244 0.186699 32.2813 0.24368 32.3383C0.198096 32.3611 0.129711 32.4636 0.0841263 32.4522C0.0385418 32.5775 0.357636 32.6914 0.300656 32.8509C0.323448 32.8509 0.346237 32.8623 0.36903 32.8964C0.36903 33.0331 0.277865 33.1926 0.471599 33.3179L0.300656 33.466C0.380428 33.5799 0.505789 33.2723 0.642543 33.466C0.745108 33.5913 0.494389 33.5685 0.460201 33.6368C0.585558 33.6824 0.81348 33.7393 0.699518 33.933C0.642538 33.8988 0.665335 33.8533 0.642543 33.8191L0.57416 33.9558C0.357634 33.8874 0.391828 33.7735 0.277867 33.9216C0.642543 33.8191 0.4602 34.3203 0.824877 34.195L0.767901 34.2861C0.767901 34.2861 0.745102 34.2747 0.733705 34.2519C0.608348 34.4456 1.03001 34.2519 1.04141 34.4342C1.04141 34.5025 0.995817 34.5595 0.938836 34.5367L1.07559 34.6278C1.07559 34.6278 1.01862 34.6848 1.00722 34.6392L1.12118 34.8215C1.18956 34.8215 1.30351 34.8556 1.3491 34.867C1.31491 34.9354 1.30352 34.867 1.25794 34.8898L1.39468 34.9582C1.32631 35.0379 1.18956 34.9923 1.17816 34.9126C0.870467 35.1746 1.30352 34.9582 1.20095 35.2657L1.10978 35.186C0.938838 35.3454 1.0528 35.391 0.984422 35.5619C1.03001 35.5049 1.18956 35.186 1.32631 35.2543C1.32631 35.2999 1.32631 35.3454 1.41748 35.3682C1.29212 35.4252 1.3491 35.4707 1.39468 35.5505L1.23514 35.6302C1.32631 35.6872 1.40608 35.6302 1.49725 35.653C1.53144 35.7441 1.41748 35.8352 1.31491 35.915C1.3605 36.0744 1.46306 35.7099 1.57703 35.858C1.57703 36.0061 1.69099 36.0517 1.86193 36.1428C1.86193 36.2567 1.75936 36.1884 1.72517 36.2453H1.89612C1.89612 36.2453 1.86192 36.2795 1.83913 36.2909C1.9189 36.325 1.99868 36.1997 2.10125 36.2681C2.27219 36.1997 2.03287 36.5187 2.18102 36.5984L3.08131 36.0972C3.08131 36.0972 3.04712 36.0858 3.02433 36.0858C3.05852 36.0403 3.13829 36.0517 3.19527 36.0175C3.00154 35.9264 3.04713 35.9264 2.80781 35.8694L2.8306 35.7783Z" fill="#DD1212"/>
<path d="M1.9873 28.3629L2.04428 28.2718L2.01009 28.2946L1.9873 28.3629Z" fill="#DD1212"/>
<path d="M2.07832 29.3881C2.07832 29.3881 2.00994 29.4109 1.96436 29.4109L2.1353 29.4451L2.07832 29.3767V29.3881Z" fill="#DD1212"/>
<path d="M2.19225 29.7412C2.19225 29.7412 2.12388 29.6159 2.06689 29.6956C2.11248 29.7184 2.18086 29.8665 2.19225 29.7412Z" fill="#DD1212"/>
<path d="M2.24918 32.5091C2.32896 32.5775 2.29477 32.6117 2.47711 32.5547C2.53409 32.4294 2.29477 32.5547 2.36314 32.4294C2.29477 32.4066 2.30617 32.5205 2.23779 32.5091H2.24918Z" fill="#DD1212"/>
<path d="M2.785 24.7862L2.87617 24.7293L2.76221 24.7407L2.785 24.7862Z" fill="#DD1212"/>
<path d="M2.69402 24.5128C2.69402 24.5128 2.69402 24.5584 2.64844 24.5584L2.81938 24.6154L2.68263 24.5128H2.69402Z" fill="#DD1212"/>
<path d="M1.15545 35.5391C1.15545 35.5391 1.18964 35.4821 1.17825 35.4479L1.10986 35.5505H1.15545V35.5391Z" fill="#DD1212"/>
<path d="M0.767746 34.4342L0.904494 34.3317L0.756348 34.4114L0.767746 34.4342Z" fill="#DD1212"/>
<path d="M0.232422 33.5343C0.232422 33.5343 0.289397 33.614 0.289397 33.6482C0.232417 33.5685 0.426156 33.4546 0.232422 33.5343Z" fill="#DD1212"/>
</svg>
