<svg width="34" height="42" viewBox="0 0 34 42" fill="none" xmlns="http://www.w3.org/2000/svg">
<g clip-path="url(#clip0_18_308)">
<path d="M21.6001 29.66V38.51" stroke="#202020" stroke-linecap="round" stroke-linejoin="round"/>
<path d="M26.0199 34.0801H17.1699" stroke="#202020" stroke-linecap="round" stroke-linejoin="round"/>
<path d="M13.9602 41C13.9602 41 0.980174 39.59 0.510174 29.9C0.0401741 20.21 11.1402 17.23 5.20017 9.26C5.20017 9.26 10.8302 10.67 11.3002 14.26C11.3002 14.26 17.7102 8.79 14.4302 0.5C14.4302 0.5 22.5602 2.38 23.9702 10.98" stroke="#202020" stroke-linecap="round" stroke-linejoin="round"/>
<path d="M20.8398 18.9399H33.3498" stroke="#202020" stroke-linecap="round" stroke-linejoin="round"/>
<path d="M27.4102 26.45L33.5102 18.94L27.4902 11.36" stroke="#202020" stroke-linecap="round" stroke-linejoin="round"/>
<path d="M21.6 40.93C25.3832 40.93 28.45 37.8631 28.45 34.08C28.45 30.2968 25.3832 27.23 21.6 27.23C17.8168 27.23 14.75 30.2968 14.75 34.08C14.75 37.8631 17.8168 40.93 21.6 40.93Z" stroke="#202020" stroke-linecap="round" stroke-linejoin="round"/>
</g>
<defs>
<clipPath id="clip0_18_308">
<rect width="34.01" height="41.5" fill="white"/>
</clipPath>
</defs>
</svg>
