<svg width="33" height="42" viewBox="0 0 33 42" fill="none" xmlns="http://www.w3.org/2000/svg">
<g clip-path="url(#clip0_18_269)">
<path d="M7.98136 29.5211C7.98136 29.5211 15.3576 29.0008 14.5847 22.3818C14.5847 22.3818 14.4335 19.4732 11.1654 17.102C10.3085 16.4793 9.6364 15.6263 9.30035 14.6198C9.0063 13.7328 8.88869 12.5983 9.35916 11.3274C9.35916 11.3274 5.41058 13.4172 5.58701 17.4261C5.76343 21.435 7.98976 21.9553 6.70437 23.3457C5.41898 24.736 3.4447 21.7762 3.78915 19.6865C3.78915 19.6865 1.64683 22.8254 3.52871 25.7852C5.41058 28.7449 13.0473 26.9196 9.01471 18.5605C9.01471 18.5605 13.0473 20.8209 12.0139 24.9151C10.9806 29.0094 7.98136 29.5297 7.98136 29.5297V29.5211Z" stroke="#202020" stroke-linecap="round" stroke-linejoin="round"/>
<path d="M25.6656 20.5906V6.21814H21.5826V9.09263H4.50292V6.21814H0.419922V41.5735H16.8695" stroke="#202020" stroke-linecap="round" stroke-linejoin="round"/>
<path d="M17.1048 3.61654V0.426453H8.98078V3.61654H4.50293V9.09258H8.98078H17.1048H21.5826V3.61654H17.1048Z" stroke="#202020" stroke-linecap="round" stroke-linejoin="round"/>
<path d="M25.4304 41.4711L27.7492 40.3708C30.6728 38.9805 32.5799 35.4151 32.5799 30.8858V26.6807C32.5799 26.6807 30.5552 25.0004 25.422 25.0004H25.6657C20.5409 25.0004 18.5078 26.6807 18.5078 26.6807V30.8858C18.5078 35.5942 20.4149 38.9805 23.3385 40.3708L25.422 41.4711H25.4304Z" stroke="#202020" stroke-linecap="round" stroke-linejoin="round"/>
<path d="M21.8179 32.8562L24.5063 36.0122L30.0427 29.3676" stroke="#202020" stroke-linecap="round" stroke-linejoin="round"/>
</g>
<defs>
<clipPath id="clip0_18_269">
<rect width="33" height="42" fill="white"/>
</clipPath>
</defs>
</svg>
