<svg width="51" height="43" viewBox="0 0 51 43" fill="none" xmlns="http://www.w3.org/2000/svg">
<g clip-path="url(#clip0_18_297)">
<path d="M38.79 21.76H49.83" stroke="#202020" stroke-linecap="round" stroke-linejoin="round"/>
<path d="M44.5898 28.3899L49.9698 21.7599L44.6598 15.0699" stroke="#202020" stroke-linecap="round" stroke-linejoin="round"/>
<path d="M6.54004 15.43V0.5H35.83V41.7H16.17" stroke="#202020" stroke-linecap="round" stroke-linejoin="round"/>
<path d="M6.72988 41.3801C6.72988 41.3801 15.5099 40.77 14.5899 33.01C14.5899 33.01 14.4099 29.6 10.5199 26.82C9.49988 26.09 8.69988 25.09 8.29988 23.91C7.94988 22.87 7.80987 21.54 8.36987 20.05C8.36987 20.05 3.66988 22.5001 3.87988 27.2001C4.08988 31.9001 6.73988 32.51 5.20988 34.14C3.67988 35.77 1.32988 32.3001 1.73988 29.85C1.73988 29.85 -0.810125 33.53 1.42988 37C3.66988 40.47 12.7599 38.3301 7.95988 28.5301C7.95988 28.5301 12.7599 31.18 11.5299 35.98C10.2999 40.78 6.72988 41.39 6.72988 41.39V41.3801Z" stroke="#202020" stroke-linecap="round" stroke-linejoin="round"/>
<path d="M32.7999 20.34H23.9199V22.61H32.7999V20.34Z" stroke="#202020" stroke-linecap="round" stroke-linejoin="round"/>
</g>
<defs>
<clipPath id="clip0_18_297">
<rect width="50.47" height="42.2" fill="white"/>
</clipPath>
</defs>
</svg>
